<?xml version="1.0" encoding="utf-8" standalone="no"?>
<!DOCTYPE svg PUBLIC "-//W3C//DTD SVG 1.1//EN"
  "http://www.w3.org/Graphics/SVG/1.1/DTD/svg11.dtd">
<svg xmlns:xlink="http://www.w3.org/1999/xlink" width="231.59952pt" height="166.869015pt" viewBox="0 0 231.59952 166.869015" xmlns="http://www.w3.org/2000/svg" version="1.1">
 <metadata>
  <rdf:RDF xmlns:dc="http://purl.org/dc/elements/1.1/" xmlns:cc="http://creativecommons.org/ns#" xmlns:rdf="http://www.w3.org/1999/02/22-rdf-syntax-ns#">
   <cc:Work>
    <dc:type rdf:resource="http://purl.org/dc/dcmitype/StillImage"/>
    <dc:date>2025-11-18T18:31:50.281494</dc:date>
    <dc:format>image/svg+xml</dc:format>
    <dc:creator>
     <cc:Agent>
      <dc:title>Matplotlib v3.9.4, https://matplotlib.org/</dc:title>
     </cc:Agent>
    </dc:creator>
   </cc:Work>
  </rdf:RDF>
 </metadata>
 <defs>
  <style type="text/css">*{stroke-linejoin: round; stroke-linecap: butt}</style>
 </defs>
 <g id="figure_1">
  <g id="patch_1">
   <path d="M 0 166.869015 
L 231.59952 166.869015 
L 231.59952 0 
L 0 0 
z
" style="fill: #ffffff"/>
  </g>
  <g id="axes_1">
   <g id="patch_2">
    <path d="M 33.306406 141.268704 
L 227.99952 141.268704 
L 227.99952 27.933741 
L 33.306406 27.933741 
z
" style="fill: #ffffff"/>
   </g>
   <g id="matplotlib.axis_1">
    <g id="xtick_1">
     <g id="line2d_1">
      <path d="M 130.652963 141.268704 
L 130.652963 27.933741 
" clip-path="url(#pb9a82fcd67)" style="fill: none; stroke: #e0e0e0; stroke-width: 0.4; stroke-linecap: square"/>
     </g>
     <g id="line2d_2">
      <defs>
       <path id="m8e2d5f9dfc" d="M 0 0 
L 0 -3 
" style="stroke: #000000; stroke-width: 0.5"/>
      </defs>
      <g>
       <use xlink:href="#m8e2d5f9dfc" x="130.652963" y="141.268704" style="stroke: #000000; stroke-width: 0.5"/>
      </g>
     </g>
     <g id="line2d_3">
      <defs>
       <path id="m4f3a5237a0" d="M 0 0 
L 0 3 
" style="stroke: #000000; stroke-width: 0.5"/>
      </defs>
      <g>
       <use xlink:href="#m4f3a5237a0" x="130.652963" y="27.933741" style="stroke: #000000; stroke-width: 0.5"/>
      </g>
     </g>
     <g id="text_1">
      <!-- $\mathdefault{10^{3}}$ -->
      <g transform="translate(126.418841 149.063512) scale(0.06 -0.06)">
       <defs>
        <path id="NimbusRomNo9L-Regu-31" d="M 1862 4339 
L 710 3757 
L 710 3667 
C 787 3699 858 3725 883 3738 
C 998 3783 1107 3808 1171 3808 
C 1306 3808 1363 3711 1363 3505 
L 1363 592 
C 1363 379 1312 232 1210 173 
C 1114 116 1024 96 755 96 
L 755 0 
L 2522 0 
L 2522 96 
C 2016 96 1914 160 1914 470 
L 1914 4327 
L 1862 4339 
z
" transform="scale(0.015625)"/>
        <path id="NimbusRomNo9L-Regu-30" d="M 1626 4352 
C 1274 4352 1005 4244 768 4020 
C 397 3661 154 2925 154 2176 
C 154 1479 365 730 666 372 
C 902 90 1229 -64 1600 -64 
C 1926 -64 2202 45 2432 269 
C 2803 621 3046 1364 3046 2138 
C 3046 3450 2464 4352 1626 4352 
z
M 1606 4186 
C 2144 4186 2432 3463 2432 2125 
C 2432 788 2150 103 1600 103 
C 1050 103 768 788 768 2119 
C 768 3476 1056 4186 1606 4186 
z
" transform="scale(0.015625)"/>
        <path id="NimbusRomNo9L-Regu-33" d="M 979 2138 
C 1357 2138 1504 2125 1658 2068 
C 2054 1927 2304 1562 2304 1120 
C 2304 583 1939 167 1466 167 
C 1293 167 1165 212 928 365 
C 736 480 627 525 518 525 
C 371 525 275 436 275 301 
C 275 77 550 -64 998 -64 
C 1491 -64 1997 103 2298 365 
C 2598 628 2765 999 2765 1428 
C 2765 1754 2662 2055 2477 2253 
C 2349 2394 2227 2471 1946 2592 
C 2387 2893 2547 3130 2547 3476 
C 2547 3994 2138 4352 1549 4352 
C 1229 4352 947 4244 717 4039 
C 525 3866 429 3699 288 3315 
L 384 3290 
C 646 3757 934 3968 1338 3968 
C 1754 3968 2042 3687 2042 3284 
C 2042 3053 1946 2823 1786 2663 
C 1594 2471 1414 2375 979 2221 
L 979 2138 
z
" transform="scale(0.015625)"/>
       </defs>
       <use xlink:href="#NimbusRomNo9L-Regu-31" transform="scale(0.996264)"/>
       <use xlink:href="#NimbusRomNo9L-Regu-30" transform="translate(49.8132 0) scale(0.996264)"/>
       <use xlink:href="#NimbusRomNo9L-Regu-33" transform="translate(99.626401 36.163231) scale(0.737241)"/>
      </g>
     </g>
    </g>
    <g id="xtick_2">
     <g id="line2d_4">
      <defs>
       <path id="m2afa69f2fd" d="M 0 0 
L 0 -1.5 
" style="stroke: #000000; stroke-width: 0.5"/>
      </defs>
      <g>
       <use xlink:href="#m2afa69f2fd" x="33.306406" y="141.268704" style="stroke: #000000; stroke-width: 0.5"/>
      </g>
     </g>
     <g id="line2d_5">
      <defs>
       <path id="m3c3d4f4c78" d="M 0 0 
L 0 1.5 
" style="stroke: #000000; stroke-width: 0.5"/>
      </defs>
      <g>
       <use xlink:href="#m3c3d4f4c78" x="33.306406" y="27.933741" style="stroke: #000000; stroke-width: 0.5"/>
      </g>
     </g>
    </g>
    <g id="xtick_3">
     <g id="line2d_6">
      <g>
       <use xlink:href="#m2afa69f2fd" x="58.9119" y="141.268704" style="stroke: #000000; stroke-width: 0.5"/>
      </g>
     </g>
     <g id="line2d_7">
      <g>
       <use xlink:href="#m3c3d4f4c78" x="58.9119" y="27.933741" style="stroke: #000000; stroke-width: 0.5"/>
      </g>
     </g>
    </g>
    <g id="xtick_4">
     <g id="line2d_8">
      <g>
       <use xlink:href="#m2afa69f2fd" x="80.561036" y="141.268704" style="stroke: #000000; stroke-width: 0.5"/>
      </g>
     </g>
     <g id="line2d_9">
      <g>
       <use xlink:href="#m3c3d4f4c78" x="80.561036" y="27.933741" style="stroke: #000000; stroke-width: 0.5"/>
      </g>
     </g>
    </g>
    <g id="xtick_5">
     <g id="line2d_10">
      <g>
       <use xlink:href="#m2afa69f2fd" x="99.314371" y="141.268704" style="stroke: #000000; stroke-width: 0.5"/>
      </g>
     </g>
     <g id="line2d_11">
      <g>
       <use xlink:href="#m3c3d4f4c78" x="99.314371" y="27.933741" style="stroke: #000000; stroke-width: 0.5"/>
      </g>
     </g>
    </g>
    <g id="xtick_6">
     <g id="line2d_12">
      <g>
       <use xlink:href="#m2afa69f2fd" x="115.855985" y="141.268704" style="stroke: #000000; stroke-width: 0.5"/>
      </g>
     </g>
     <g id="line2d_13">
      <g>
       <use xlink:href="#m3c3d4f4c78" x="115.855985" y="27.933741" style="stroke: #000000; stroke-width: 0.5"/>
      </g>
     </g>
    </g>
    <g id="xtick_7">
     <g id="line2d_14">
      <g>
       <use xlink:href="#m2afa69f2fd" x="227.99952" y="141.268704" style="stroke: #000000; stroke-width: 0.5"/>
      </g>
     </g>
     <g id="line2d_15">
      <g>
       <use xlink:href="#m3c3d4f4c78" x="227.99952" y="27.933741" style="stroke: #000000; stroke-width: 0.5"/>
      </g>
     </g>
    </g>
    <g id="text_2">
     <!-- Sample size $T$ -->
     <g transform="translate(102.703171 161.112186) scale(0.1 -0.1)">
      <defs>
       <path id="NimbusRomNo9L-Regu-53" d="M 2861 4352 
L 2726 4352 
C 2701 4205 2630 4135 2522 4135 
C 2458 4135 2349 4160 2240 4212 
C 2003 4301 1766 4352 1562 4352 
C 1286 4352 1005 4244 794 4058 
C 570 3859 454 3590 454 3256 
C 454 2743 736 2385 1453 2006 
C 1914 1763 2246 1499 2406 1256 
C 2464 1173 2496 1038 2496 884 
C 2496 454 2176 160 1709 160 
C 1139 160 736 513 416 1296 
L 269 1296 
L 461 -64 
L 602 -64 
C 608 57 685 147 781 147 
C 851 147 960 122 1082 79 
C 1325 -14 1581 -64 1837 -64 
C 2573 -64 3142 442 3142 1101 
C 3142 1626 2790 2042 1946 2496 
C 1274 2868 1005 3149 1005 3495 
C 1005 3847 1274 4090 1670 4090 
C 1958 4090 2227 3968 2451 3738 
C 2650 3533 2739 3367 2842 2989 
L 3002 2989 
L 2861 4352 
z
" transform="scale(0.015625)"/>
       <path id="NimbusRomNo9L-Regu-61" d="M 2829 423 
C 2720 333 2643 301 2547 301 
C 2400 301 2355 390 2355 672 
L 2355 1920 
C 2355 2253 2323 2438 2227 2592 
C 2086 2822 1811 2944 1434 2944 
C 832 2944 358 2630 358 2227 
C 358 2080 486 1952 634 1952 
C 787 1952 922 2080 922 2221 
C 922 2246 915 2278 909 2323 
C 896 2381 890 2432 890 2477 
C 890 2650 1094 2790 1350 2790 
C 1664 2790 1837 2605 1837 2259 
L 1837 1869 
C 851 1472 742 1421 467 1178 
C 326 1050 237 832 237 621 
C 237 218 518 -64 909 -64 
C 1190 -64 1453 70 1843 403 
C 1875 70 1990 -64 2253 -64 
C 2470 -64 2605 13 2829 256 
L 2829 423 
z
M 1837 783 
C 1837 584 1805 526 1670 449 
C 1517 359 1338 301 1203 301 
C 979 301 800 520 800 796 
L 800 822 
C 800 1201 1062 1433 1837 1715 
L 1837 783 
z
" transform="scale(0.015625)"/>
       <path id="NimbusRomNo9L-Regu-6d" d="M 122 2547 
C 205 2566 256 2573 326 2573 
C 493 2573 550 2470 550 2162 
L 550 539 
C 550 192 461 96 102 96 
L 102 0 
L 1523 0 
L 1523 96 
C 1184 96 1088 166 1088 418 
L 1088 2234 
C 1088 2246 1139 2310 1184 2355 
C 1344 2502 1619 2611 1843 2611 
C 2125 2611 2266 2385 2266 1932 
L 2266 528 
C 2266 167 2195 96 1830 96 
L 1830 0 
L 3264 0 
L 3264 96 
C 2899 96 2803 205 2803 603 
L 2803 2221 
C 2995 2496 3206 2611 3501 2611 
C 3866 2611 3981 2438 3981 1907 
L 3981 557 
C 3981 192 3930 141 3558 96 
L 3558 0 
L 4960 0 
L 4960 96 
L 4794 115 
C 4602 115 4518 230 4518 480 
L 4518 1802 
C 4518 2559 4269 2944 3776 2944 
C 3405 2944 3078 2778 2733 2407 
C 2618 2771 2400 2944 2054 2944 
C 1773 2944 1594 2854 1062 2451 
L 1062 2931 
L 1018 2944 
C 691 2822 474 2752 122 2656 
L 122 2547 
z
" transform="scale(0.015625)"/>
       <path id="NimbusRomNo9L-Regu-70" d="M 58 2516 
C 115 2522 160 2522 218 2522 
C 435 2522 480 2458 480 2155 
L 480 -855 
C 480 -1189 410 -1261 32 -1299 
L 32 -1408 
L 1581 -1408 
L 1581 -1293 
C 1101 -1293 1018 -1222 1018 -816 
L 1018 199 
C 1242 -13 1395 -77 1664 -77 
C 2419 -77 3008 643 3008 1575 
C 3008 2372 2560 2944 1939 2944 
C 1581 2944 1299 2784 1018 2438 
L 1018 2931 
L 979 2944 
C 634 2810 410 2726 58 2618 
L 58 2516 
z
M 1018 2136 
C 1018 2329 1376 2560 1670 2560 
C 2144 2560 2458 2071 2458 1324 
C 2458 611 2144 128 1683 128 
C 1382 128 1018 359 1018 552 
L 1018 2136 
z
" transform="scale(0.015625)"/>
       <path id="NimbusRomNo9L-Regu-6c" d="M 122 4000 
L 160 4000 
C 230 4000 307 4000 358 4000 
C 563 4000 627 3910 627 3610 
L 627 557 
C 627 211 538 128 134 96 
L 134 0 
L 1645 0 
L 1645 109 
C 1242 109 1165 173 1165 528 
L 1165 4371 
L 1139 4384 
C 806 4275 563 4211 122 4103 
L 122 4000 
z
" transform="scale(0.015625)"/>
       <path id="NimbusRomNo9L-Regu-65" d="M 2611 1053 
C 2304 564 2029 378 1619 378 
C 1254 378 979 564 794 930 
C 678 1174 634 1386 621 1779 
L 2592 1779 
C 2541 2193 2477 2377 2317 2581 
C 2125 2811 1830 2944 1498 2944 
C 1178 2944 877 2829 634 2611 
C 333 2349 160 1894 160 1370 
C 160 486 621 -64 1357 -64 
C 1965 -64 2445 315 2714 1008 
L 2611 1053 
z
M 634 1984 
C 704 2479 922 2714 1312 2714 
C 1702 2714 1856 2535 1939 1984 
L 634 1984 
z
" transform="scale(0.015625)"/>
       <path id="NimbusRomNo9L-Regu-73" d="M 2016 2010 
L 1990 2880 
L 1920 2880 
L 1907 2867 
C 1850 2822 1843 2816 1818 2816 
C 1779 2816 1715 2829 1645 2861 
C 1504 2915 1363 2944 1197 2944 
C 691 2944 326 2616 326 2154 
C 326 1796 531 1539 1075 1231 
L 1446 1020 
C 1670 892 1779 737 1779 539 
C 1779 256 1574 77 1248 77 
C 1030 77 832 159 710 298 
C 576 455 518 600 435 960 
L 333 960 
L 333 -39 
L 416 -39 
C 461 33 486 48 563 48 
C 621 48 710 35 858 -2 
C 1037 -39 1210 -64 1325 -64 
C 1818 -64 2227 308 2227 757 
C 2227 1077 2074 1289 1690 1520 
L 998 1930 
C 819 2033 723 2194 723 2367 
C 723 2624 922 2803 1216 2803 
C 1581 2803 1773 2583 1920 2010 
L 2016 2010 
z
" transform="scale(0.015625)"/>
       <path id="NimbusRomNo9L-Regu-69" d="M 1120 2929 
L 128 2579 
L 128 2484 
L 179 2490 
C 256 2502 339 2509 397 2509 
C 550 2509 608 2406 608 2125 
L 608 640 
C 608 179 544 109 102 109 
L 102 0 
L 1619 0 
L 1619 96 
C 1197 128 1146 191 1146 650 
L 1146 2910 
L 1120 2929 
z
M 819 4352 
C 646 4352 499 4205 499 4026 
C 499 3847 640 3699 819 3699 
C 1005 3699 1152 3840 1152 4026 
C 1152 4205 1005 4352 819 4352 
z
" transform="scale(0.015625)"/>
       <path id="NimbusRomNo9L-Regu-7a" d="M 2675 864 
L 2560 890 
C 2496 570 2458 467 2374 358 
C 2285 250 2067 192 1741 192 
L 858 192 
L 2579 2784 
L 2579 2880 
L 358 2880 
L 339 2125 
L 454 2125 
C 512 2592 608 2688 992 2688 
L 1875 2688 
L 173 96 
L 173 0 
L 2586 0 
L 2675 864 
z
" transform="scale(0.015625)"/>
       <path id="NimbusRomNo9L-ReguItal-54" d="M 4051 4160 
L 646 4160 
L 378 3179 
L 493 3153 
C 832 3835 1037 3943 2016 3943 
L 1094 575 
C 992 236 838 134 416 102 
L 416 0 
L 2272 0 
L 2272 102 
C 2163 102 2067 128 2029 128 
C 1773 128 1696 185 1696 378 
C 1696 461 1715 537 1773 754 
L 2662 3943 
L 3014 3943 
C 3475 3943 3680 3782 3680 3422 
C 3680 3339 3674 3244 3661 3134 
L 3770 3121 
L 4051 4160 
z
" transform="scale(0.015625)"/>
      </defs>
      <use xlink:href="#NimbusRomNo9L-Regu-53" transform="scale(0.996264)"/>
      <use xlink:href="#NimbusRomNo9L-Regu-61" transform="translate(55.391677 0) scale(0.996264)"/>
      <use xlink:href="#NimbusRomNo9L-Regu-6d" transform="translate(99.625246 0) scale(0.996264)"/>
      <use xlink:href="#NimbusRomNo9L-Regu-70" transform="translate(177.133616 0) scale(0.996264)"/>
      <use xlink:href="#NimbusRomNo9L-Regu-6c" transform="translate(226.946816 0) scale(0.996264)"/>
      <use xlink:href="#NimbusRomNo9L-Regu-65" transform="translate(254.641986 0) scale(0.996264)"/>
      <use xlink:href="#NimbusRomNo9L-Regu-73" transform="translate(323.782155 0) scale(0.996264)"/>
      <use xlink:href="#NimbusRomNo9L-Regu-69" transform="translate(362.535861 0) scale(0.996264)"/>
      <use xlink:href="#NimbusRomNo9L-Regu-7a" transform="translate(390.231031 0) scale(0.996264)"/>
      <use xlink:href="#NimbusRomNo9L-Regu-65" transform="translate(434.464599 0) scale(0.996264)"/>
      <use xlink:href="#NimbusRomNo9L-ReguItal-54" transform="translate(503.604768 0) scale(0.996264)"/>
     </g>
    </g>
   </g>
   <g id="matplotlib.axis_2">
    <g id="ytick_1">
     <g id="line2d_16">
      <path d="M 33.306406 97.032541 
L 227.99952 97.032541 
" clip-path="url(#pb9a82fcd67)" style="fill: none; stroke: #e0e0e0; stroke-width: 0.4; stroke-linecap: square"/>
     </g>
     <g id="line2d_17">
      <defs>
       <path id="m4a4c330932" d="M 0 0 
L 3 0 
" style="stroke: #000000; stroke-width: 0.5"/>
      </defs>
      <g>
       <use xlink:href="#m4a4c330932" x="33.306406" y="97.032541" style="stroke: #000000; stroke-width: 0.5"/>
      </g>
     </g>
     <g id="line2d_18">
      <defs>
       <path id="mc382c62d56" d="M 0 0 
L -3 0 
" style="stroke: #000000; stroke-width: 0.5"/>
      </defs>
      <g>
       <use xlink:href="#mc382c62d56" x="227.99952" y="97.032541" style="stroke: #000000; stroke-width: 0.5"/>
      </g>
     </g>
     <g id="text_3">
      <!-- $\mathdefault{10^{-1}}$ -->
      <g transform="translate(17.467727 99.179945) scale(0.06 -0.06)">
       <defs>
        <path id="CMSY10-0" d="M 4218 1472 
C 4326 1472 4442 1472 4442 1600 
C 4442 1728 4326 1728 4218 1728 
L 755 1728 
C 646 1728 531 1728 531 1600 
C 531 1472 646 1472 755 1472 
L 4218 1472 
z
" transform="scale(0.015625)"/>
       </defs>
       <use xlink:href="#NimbusRomNo9L-Regu-31" transform="scale(0.996264)"/>
       <use xlink:href="#NimbusRomNo9L-Regu-30" transform="translate(49.8132 0) scale(0.996264)"/>
       <use xlink:href="#CMSY10-0" transform="translate(99.626401 36.163231) scale(0.737241)"/>
       <use xlink:href="#NimbusRomNo9L-Regu-31" transform="translate(156.909271 36.163231) scale(0.737241)"/>
      </g>
     </g>
    </g>
    <g id="ytick_2">
     <g id="line2d_19">
      <path d="M 33.306406 42.451053 
L 227.99952 42.451053 
" clip-path="url(#pb9a82fcd67)" style="fill: none; stroke: #e0e0e0; stroke-width: 0.4; stroke-linecap: square"/>
     </g>
     <g id="line2d_20">
      <g>
       <use xlink:href="#m4a4c330932" x="33.306406" y="42.451053" style="stroke: #000000; stroke-width: 0.5"/>
      </g>
     </g>
     <g id="line2d_21">
      <g>
       <use xlink:href="#mc382c62d56" x="227.99952" y="42.451053" style="stroke: #000000; stroke-width: 0.5"/>
      </g>
     </g>
     <g id="text_4">
      <!-- $\mathdefault{10^{0}}$ -->
      <g transform="translate(21.338162 44.598457) scale(0.06 -0.06)">
       <use xlink:href="#NimbusRomNo9L-Regu-31" transform="scale(0.996264)"/>
       <use xlink:href="#NimbusRomNo9L-Regu-30" transform="translate(49.8132 0) scale(0.996264)"/>
       <use xlink:href="#NimbusRomNo9L-Regu-30" transform="translate(99.626401 36.163231) scale(0.737241)"/>
      </g>
     </g>
    </g>
    <g id="ytick_3">
     <g id="line2d_22">
      <defs>
       <path id="mbd0adc9ae3" d="M 0 0 
L 1.5 0 
" style="stroke: #000000; stroke-width: 0.5"/>
      </defs>
      <g>
       <use xlink:href="#mbd0adc9ae3" x="33.306406" y="135.183364" style="stroke: #000000; stroke-width: 0.5"/>
      </g>
     </g>
     <g id="line2d_23">
      <defs>
       <path id="m15c06510e4" d="M 0 0 
L -1.5 0 
" style="stroke: #000000; stroke-width: 0.5"/>
      </defs>
      <g>
       <use xlink:href="#m15c06510e4" x="227.99952" y="135.183364" style="stroke: #000000; stroke-width: 0.5"/>
      </g>
     </g>
    </g>
    <g id="ytick_4">
     <g id="line2d_24">
      <g>
       <use xlink:href="#mbd0adc9ae3" x="33.306406" y="125.572041" style="stroke: #000000; stroke-width: 0.5"/>
      </g>
     </g>
     <g id="line2d_25">
      <g>
       <use xlink:href="#m15c06510e4" x="227.99952" y="125.572041" style="stroke: #000000; stroke-width: 0.5"/>
      </g>
     </g>
    </g>
    <g id="ytick_5">
     <g id="line2d_26">
      <g>
       <use xlink:href="#mbd0adc9ae3" x="33.306406" y="118.752699" style="stroke: #000000; stroke-width: 0.5"/>
      </g>
     </g>
     <g id="line2d_27">
      <g>
       <use xlink:href="#m15c06510e4" x="227.99952" y="118.752699" style="stroke: #000000; stroke-width: 0.5"/>
      </g>
     </g>
    </g>
    <g id="ytick_6">
     <g id="line2d_28">
      <g>
       <use xlink:href="#mbd0adc9ae3" x="33.306406" y="113.463206" style="stroke: #000000; stroke-width: 0.5"/>
      </g>
     </g>
     <g id="line2d_29">
      <g>
       <use xlink:href="#m15c06510e4" x="227.99952" y="113.463206" style="stroke: #000000; stroke-width: 0.5"/>
      </g>
     </g>
    </g>
    <g id="ytick_7">
     <g id="line2d_30">
      <g>
       <use xlink:href="#mbd0adc9ae3" x="33.306406" y="109.141376" style="stroke: #000000; stroke-width: 0.5"/>
      </g>
     </g>
     <g id="line2d_31">
      <g>
       <use xlink:href="#m15c06510e4" x="227.99952" y="109.141376" style="stroke: #000000; stroke-width: 0.5"/>
      </g>
     </g>
    </g>
    <g id="ytick_8">
     <g id="line2d_32">
      <g>
       <use xlink:href="#mbd0adc9ae3" x="33.306406" y="105.487321" style="stroke: #000000; stroke-width: 0.5"/>
      </g>
     </g>
     <g id="line2d_33">
      <g>
       <use xlink:href="#m15c06510e4" x="227.99952" y="105.487321" style="stroke: #000000; stroke-width: 0.5"/>
      </g>
     </g>
    </g>
    <g id="ytick_9">
     <g id="line2d_34">
      <g>
       <use xlink:href="#mbd0adc9ae3" x="33.306406" y="102.322034" style="stroke: #000000; stroke-width: 0.5"/>
      </g>
     </g>
     <g id="line2d_35">
      <g>
       <use xlink:href="#m15c06510e4" x="227.99952" y="102.322034" style="stroke: #000000; stroke-width: 0.5"/>
      </g>
     </g>
    </g>
    <g id="ytick_10">
     <g id="line2d_36">
      <g>
       <use xlink:href="#mbd0adc9ae3" x="33.306406" y="99.530053" style="stroke: #000000; stroke-width: 0.5"/>
      </g>
     </g>
     <g id="line2d_37">
      <g>
       <use xlink:href="#m15c06510e4" x="227.99952" y="99.530053" style="stroke: #000000; stroke-width: 0.5"/>
      </g>
     </g>
    </g>
    <g id="ytick_11">
     <g id="line2d_38">
      <g>
       <use xlink:href="#mbd0adc9ae3" x="33.306406" y="80.601876" style="stroke: #000000; stroke-width: 0.5"/>
      </g>
     </g>
     <g id="line2d_39">
      <g>
       <use xlink:href="#m15c06510e4" x="227.99952" y="80.601876" style="stroke: #000000; stroke-width: 0.5"/>
      </g>
     </g>
    </g>
    <g id="ytick_12">
     <g id="line2d_40">
      <g>
       <use xlink:href="#mbd0adc9ae3" x="33.306406" y="70.990553" style="stroke: #000000; stroke-width: 0.5"/>
      </g>
     </g>
     <g id="line2d_41">
      <g>
       <use xlink:href="#m15c06510e4" x="227.99952" y="70.990553" style="stroke: #000000; stroke-width: 0.5"/>
      </g>
     </g>
    </g>
    <g id="ytick_13">
     <g id="line2d_42">
      <g>
       <use xlink:href="#mbd0adc9ae3" x="33.306406" y="64.171211" style="stroke: #000000; stroke-width: 0.5"/>
      </g>
     </g>
     <g id="line2d_43">
      <g>
       <use xlink:href="#m15c06510e4" x="227.99952" y="64.171211" style="stroke: #000000; stroke-width: 0.5"/>
      </g>
     </g>
    </g>
    <g id="ytick_14">
     <g id="line2d_44">
      <g>
       <use xlink:href="#mbd0adc9ae3" x="33.306406" y="58.881718" style="stroke: #000000; stroke-width: 0.5"/>
      </g>
     </g>
     <g id="line2d_45">
      <g>
       <use xlink:href="#m15c06510e4" x="227.99952" y="58.881718" style="stroke: #000000; stroke-width: 0.5"/>
      </g>
     </g>
    </g>
    <g id="ytick_15">
     <g id="line2d_46">
      <g>
       <use xlink:href="#mbd0adc9ae3" x="33.306406" y="54.559888" style="stroke: #000000; stroke-width: 0.5"/>
      </g>
     </g>
     <g id="line2d_47">
      <g>
       <use xlink:href="#m15c06510e4" x="227.99952" y="54.559888" style="stroke: #000000; stroke-width: 0.5"/>
      </g>
     </g>
    </g>
    <g id="ytick_16">
     <g id="line2d_48">
      <g>
       <use xlink:href="#mbd0adc9ae3" x="33.306406" y="50.905833" style="stroke: #000000; stroke-width: 0.5"/>
      </g>
     </g>
     <g id="line2d_49">
      <g>
       <use xlink:href="#m15c06510e4" x="227.99952" y="50.905833" style="stroke: #000000; stroke-width: 0.5"/>
      </g>
     </g>
    </g>
    <g id="ytick_17">
     <g id="line2d_50">
      <g>
       <use xlink:href="#mbd0adc9ae3" x="33.306406" y="47.740546" style="stroke: #000000; stroke-width: 0.5"/>
      </g>
     </g>
     <g id="line2d_51">
      <g>
       <use xlink:href="#m15c06510e4" x="227.99952" y="47.740546" style="stroke: #000000; stroke-width: 0.5"/>
      </g>
     </g>
    </g>
    <g id="ytick_18">
     <g id="line2d_52">
      <g>
       <use xlink:href="#mbd0adc9ae3" x="33.306406" y="44.948565" style="stroke: #000000; stroke-width: 0.5"/>
      </g>
     </g>
     <g id="line2d_53">
      <g>
       <use xlink:href="#m15c06510e4" x="227.99952" y="44.948565" style="stroke: #000000; stroke-width: 0.5"/>
      </g>
     </g>
    </g>
    <g id="text_5">
     <!-- $\widehat R_T - \operatorname{tr}(\Sigma)$ -->
     <g transform="translate(12.977067 105.527844) rotate(-90) scale(0.1 -0.1)">
      <defs>
       <path id="CMEX10-62" d="M 1773 4384 
L 3514 3597 
L 3590 3738 
L 1779 4762 
L -32 3738 
L 38 3597 
L 1773 4384 
z
" transform="scale(0.015625)"/>
       <path id="NimbusRomNo9L-ReguItal-52" d="M 3629 109 
C 3347 109 3219 218 3098 551 
L 2502 2121 
C 2995 2229 3206 2319 3437 2522 
C 3648 2707 3763 2955 3763 3243 
C 3763 3836 3290 4160 2432 4160 
L 845 4160 
L 845 4058 
C 1114 4020 1146 4013 1210 3969 
C 1261 3937 1299 3861 1299 3791 
C 1299 3714 1267 3561 1222 3390 
L 435 575 
C 320 199 275 161 -83 103 
L -83 0 
L 1478 0 
L 1478 103 
C 1088 154 1043 186 1043 396 
C 1043 460 1062 542 1120 765 
L 1478 2095 
L 1894 2063 
L 2682 0 
L 3629 0 
L 3629 109 
z
M 1971 3790 
C 2010 3924 2093 3969 2298 3969 
C 2829 3969 3091 3727 3091 3255 
C 3091 2624 2682 2299 1882 2299 
C 1779 2299 1709 2306 1555 2331 
L 1971 3790 
z
" transform="scale(0.015625)"/>
       <path id="NimbusRomNo9L-Regu-74" d="M 1632 2880 
L 986 2880 
L 986 3622 
C 986 3686 979 3706 941 3706 
C 896 3648 858 3590 813 3526 
C 570 3174 294 2867 192 2841 
C 122 2794 83 2748 83 2715 
C 83 2695 90 2682 109 2682 
L 448 2682 
L 448 751 
C 448 212 640 -64 1018 -64 
C 1331 -64 1574 90 1786 423 
L 1702 493 
C 1568 333 1459 269 1318 269 
C 1082 269 986 443 986 847 
L 986 2682 
L 1632 2682 
L 1632 2880 
z
" transform="scale(0.015625)"/>
       <path id="NimbusRomNo9L-Regu-72" d="M 45 2496 
C 134 2515 192 2522 269 2522 
C 429 2522 486 2419 486 2138 
L 486 538 
C 486 218 442 173 32 96 
L 32 0 
L 1568 0 
L 1568 102 
C 1133 102 1024 199 1024 565 
L 1024 2013 
C 1024 2219 1299 2541 1472 2541 
C 1510 2541 1568 2509 1638 2445 
C 1741 2355 1811 2317 1894 2317 
C 2048 2317 2144 2426 2144 2605 
C 2144 2816 2010 2944 1792 2944 
C 1523 2944 1338 2797 1024 2343 
L 1024 2931 
L 992 2944 
C 653 2803 422 2721 45 2599 
L 45 2496 
z
" transform="scale(0.015625)"/>
       <path id="CMR10-28" d="M 2118 -1536 
C 2118 -1517 2118 -1504 2010 -1395 
C 1210 -584 1005 632 1005 1616 
C 1005 2735 1248 3855 2035 4658 
C 2118 4735 2118 4748 2118 4767 
C 2118 4812 2093 4832 2054 4832 
C 1990 4832 1414 4395 1037 3577 
C 710 2870 634 2156 634 1616 
C 634 1114 704 336 1056 -391 
C 1440 -1182 1990 -1600 2054 -1600 
C 2093 -1600 2118 -1581 2118 -1536 
z
" transform="scale(0.015625)"/>
       <path id="StandardSymL-53" d="M 1069 4027 
L 2150 4027 
C 2893 4027 3091 3881 3200 3250 
L 3366 3250 
L 3302 4288 
L 141 4288 
L 1536 2039 
L 32 0 
L 3424 0 
L 3770 1146 
L 3603 1146 
C 3398 636 3206 528 2464 528 
L 755 528 
L 2106 2351 
L 1069 4027 
z
" transform="scale(0.015625)"/>
       <path id="CMR10-29" d="M 1850 1616 
C 1850 2118 1779 2896 1427 3622 
C 1043 4414 493 4832 429 4832 
C 390 4832 365 4806 365 4767 
C 365 4748 365 4735 486 4620 
C 1114 3983 1478 2960 1478 1616 
C 1478 516 1242 -617 448 -1427 
C 365 -1504 365 -1517 365 -1536 
C 365 -1575 390 -1600 429 -1600 
C 493 -1600 1069 -1163 1446 -346 
C 1773 362 1850 1075 1850 1616 
z
" transform="scale(0.015625)"/>
      </defs>
      <use xlink:href="#CMEX10-62" transform="translate(12.752532 21.818252) scale(0.996264)"/>
      <use xlink:href="#NimbusRomNo9L-ReguItal-52" transform="scale(0.996264)"/>
      <use xlink:href="#NimbusRomNo9L-ReguItal-54" transform="translate(60.871631 -14.943915) scale(0.737241)"/>
      <use xlink:href="#CMSY10-0" transform="translate(125.559106 0) scale(0.996264)"/>
      <use xlink:href="#NimbusRomNo9L-Regu-74" transform="translate(216.80478 0) scale(0.996264)"/>
      <use xlink:href="#NimbusRomNo9L-Regu-72" transform="translate(244.49995 0) scale(0.996264)"/>
      <use xlink:href="#CMR10-28" transform="translate(277.675179 0) scale(0.996264)"/>
      <use xlink:href="#StandardSymL-53" transform="translate(316.329025 0) scale(0.996264)"/>
      <use xlink:href="#CMR10-29" transform="translate(375.307091 0) scale(0.996264)"/>
     </g>
    </g>
   </g>
   <g id="LineCollection_1">
    <path d="M 33.306406 107.053091 
L 33.306406 104.395185 
" clip-path="url(#pb9a82fcd67)" style="fill: none; stroke: #26413c; stroke-width: 0.75"/>
    <path d="M 130.652963 121.524922 
L 130.652963 118.815511 
" clip-path="url(#pb9a82fcd67)" style="fill: none; stroke: #26413c; stroke-width: 0.75"/>
    <path d="M 227.99952 135.979211 
L 227.99952 133.382141 
" clip-path="url(#pb9a82fcd67)" style="fill: none; stroke: #26413c; stroke-width: 0.75"/>
   </g>
   <g id="line2d_54">
    <defs>
     <path id="mc671fee797" d="M 2.5 0 
L -2.5 -0 
" style="stroke: #26413c"/>
    </defs>
    <g clip-path="url(#pb9a82fcd67)">
     <use xlink:href="#mc671fee797" x="33.306406" y="107.053091" style="fill: #26413c; stroke: #26413c"/>
     <use xlink:href="#mc671fee797" x="130.652963" y="121.524922" style="fill: #26413c; stroke: #26413c"/>
     <use xlink:href="#mc671fee797" x="227.99952" y="135.979211" style="fill: #26413c; stroke: #26413c"/>
    </g>
   </g>
   <g id="line2d_55">
    <g clip-path="url(#pb9a82fcd67)">
     <use xlink:href="#mc671fee797" x="33.306406" y="104.395185" style="fill: #26413c; stroke: #26413c"/>
     <use xlink:href="#mc671fee797" x="130.652963" y="118.815511" style="fill: #26413c; stroke: #26413c"/>
     <use xlink:href="#mc671fee797" x="227.99952" y="133.382141" style="fill: #26413c; stroke: #26413c"/>
    </g>
   </g>
   <g id="LineCollection_2">
    <path d="M 33.306406 89.277478 
L 33.306406 85.881311 
" clip-path="url(#pb9a82fcd67)" style="fill: none; stroke: #b54c4a; stroke-width: 0.75"/>
    <path d="M 130.652963 105.576661 
L 130.652963 103.150514 
" clip-path="url(#pb9a82fcd67)" style="fill: none; stroke: #b54c4a; stroke-width: 0.75"/>
    <path d="M 227.99952 121.816553 
L 227.99952 119.106944 
" clip-path="url(#pb9a82fcd67)" style="fill: none; stroke: #b54c4a; stroke-width: 0.75"/>
   </g>
   <g id="line2d_56">
    <defs>
     <path id="md6d2da036a" d="M 2.5 0 
L -2.5 -0 
" style="stroke: #b54c4a"/>
    </defs>
    <g clip-path="url(#pb9a82fcd67)">
     <use xlink:href="#md6d2da036a" x="33.306406" y="89.277478" style="fill: #b54c4a; stroke: #b54c4a"/>
     <use xlink:href="#md6d2da036a" x="130.652963" y="105.576661" style="fill: #b54c4a; stroke: #b54c4a"/>
     <use xlink:href="#md6d2da036a" x="227.99952" y="121.816553" style="fill: #b54c4a; stroke: #b54c4a"/>
    </g>
   </g>
   <g id="line2d_57">
    <g clip-path="url(#pb9a82fcd67)">
     <use xlink:href="#md6d2da036a" x="33.306406" y="85.881311" style="fill: #b54c4a; stroke: #b54c4a"/>
     <use xlink:href="#md6d2da036a" x="130.652963" y="103.150514" style="fill: #b54c4a; stroke: #b54c4a"/>
     <use xlink:href="#md6d2da036a" x="227.99952" y="119.106944" style="fill: #b54c4a; stroke: #b54c4a"/>
    </g>
   </g>
   <g id="LineCollection_3">
    <path d="M 33.306406 69.997452 
L 33.306406 66.041798 
" clip-path="url(#pb9a82fcd67)" style="fill: none; stroke: #2f75b3; stroke-width: 0.75"/>
    <path d="M 130.652963 70.907039 
L 130.652963 67.209885 
" clip-path="url(#pb9a82fcd67)" style="fill: none; stroke: #2f75b3; stroke-width: 0.75"/>
    <path d="M 227.99952 71.45165 
L 227.99952 68.178365 
" clip-path="url(#pb9a82fcd67)" style="fill: none; stroke: #2f75b3; stroke-width: 0.75"/>
   </g>
   <g id="line2d_58">
    <defs>
     <path id="md5f9725806" d="M 2.5 0 
L -2.5 -0 
" style="stroke: #2f75b3"/>
    </defs>
    <g clip-path="url(#pb9a82fcd67)">
     <use xlink:href="#md5f9725806" x="33.306406" y="69.997452" style="fill: #2f75b3; stroke: #2f75b3"/>
     <use xlink:href="#md5f9725806" x="130.652963" y="70.907039" style="fill: #2f75b3; stroke: #2f75b3"/>
     <use xlink:href="#md5f9725806" x="227.99952" y="71.45165" style="fill: #2f75b3; stroke: #2f75b3"/>
    </g>
   </g>
   <g id="line2d_59">
    <g clip-path="url(#pb9a82fcd67)">
     <use xlink:href="#md5f9725806" x="33.306406" y="66.041798" style="fill: #2f75b3; stroke: #2f75b3"/>
     <use xlink:href="#md5f9725806" x="130.652963" y="67.209885" style="fill: #2f75b3; stroke: #2f75b3"/>
     <use xlink:href="#md5f9725806" x="227.99952" y="68.178365" style="fill: #2f75b3; stroke: #2f75b3"/>
    </g>
   </g>
   <g id="LineCollection_4">
    <path d="M 33.306406 55.093307 
L 33.306406 51.525586 
" clip-path="url(#pb9a82fcd67)" style="fill: none; stroke: #f08a2b; stroke-width: 0.75"/>
    <path d="M 130.652963 56.626679 
L 130.652963 52.967566 
" clip-path="url(#pb9a82fcd67)" style="fill: none; stroke: #f08a2b; stroke-width: 0.75"/>
    <path d="M 227.99952 56.561739 
L 227.99952 53.070948 
" clip-path="url(#pb9a82fcd67)" style="fill: none; stroke: #f08a2b; stroke-width: 0.75"/>
   </g>
   <g id="line2d_60">
    <defs>
     <path id="mdd522f1fe2" d="M 2.5 0 
L -2.5 -0 
" style="stroke: #f08a2b"/>
    </defs>
    <g clip-path="url(#pb9a82fcd67)">
     <use xlink:href="#mdd522f1fe2" x="33.306406" y="55.093307" style="fill: #f08a2b; stroke: #f08a2b"/>
     <use xlink:href="#mdd522f1fe2" x="130.652963" y="56.626679" style="fill: #f08a2b; stroke: #f08a2b"/>
     <use xlink:href="#mdd522f1fe2" x="227.99952" y="56.561739" style="fill: #f08a2b; stroke: #f08a2b"/>
    </g>
   </g>
   <g id="line2d_61">
    <g clip-path="url(#pb9a82fcd67)">
     <use xlink:href="#mdd522f1fe2" x="33.306406" y="51.525586" style="fill: #f08a2b; stroke: #f08a2b"/>
     <use xlink:href="#mdd522f1fe2" x="130.652963" y="52.967566" style="fill: #f08a2b; stroke: #f08a2b"/>
     <use xlink:href="#mdd522f1fe2" x="227.99952" y="53.070948" style="fill: #f08a2b; stroke: #f08a2b"/>
    </g>
   </g>
   <g id="LineCollection_5">
    <path d="M 33.306406 36.114912 
L 33.306406 33.223233 
" clip-path="url(#pb9a82fcd67)" style="fill: none; stroke: #7d5ab3; stroke-width: 0.75"/>
    <path d="M 130.652963 36.938501 
L 130.652963 33.76971 
" clip-path="url(#pb9a82fcd67)" style="fill: none; stroke: #7d5ab3; stroke-width: 0.75"/>
    <path d="M 227.99952 37.674409 
L 227.99952 34.570153 
" clip-path="url(#pb9a82fcd67)" style="fill: none; stroke: #7d5ab3; stroke-width: 0.75"/>
   </g>
   <g id="line2d_62">
    <defs>
     <path id="m2d8e63385f" d="M 2.5 0 
L -2.5 -0 
" style="stroke: #7d5ab3"/>
    </defs>
    <g clip-path="url(#pb9a82fcd67)">
     <use xlink:href="#m2d8e63385f" x="33.306406" y="36.114912" style="fill: #7d5ab3; stroke: #7d5ab3"/>
     <use xlink:href="#m2d8e63385f" x="130.652963" y="36.938501" style="fill: #7d5ab3; stroke: #7d5ab3"/>
     <use xlink:href="#m2d8e63385f" x="227.99952" y="37.674409" style="fill: #7d5ab3; stroke: #7d5ab3"/>
    </g>
   </g>
   <g id="line2d_63">
    <g clip-path="url(#pb9a82fcd67)">
     <use xlink:href="#m2d8e63385f" x="33.306406" y="33.223233" style="fill: #7d5ab3; stroke: #7d5ab3"/>
     <use xlink:href="#m2d8e63385f" x="130.652963" y="33.76971" style="fill: #7d5ab3; stroke: #7d5ab3"/>
     <use xlink:href="#m2d8e63385f" x="227.99952" y="34.570153" style="fill: #7d5ab3; stroke: #7d5ab3"/>
    </g>
   </g>
   <g id="line2d_64">
    <path d="M 33.306406 105.686904 
L 130.652963 120.131527 
L 227.99952 134.645127 
" clip-path="url(#pb9a82fcd67)" style="fill: none; stroke: #26413c; stroke-width: 0.75; stroke-linecap: square"/>
    <defs>
     <path id="m9b23af7ea5" d="M 0 1.5 
C 0.397805 1.5 0.77937 1.341951 1.06066 1.06066 
C 1.341951 0.77937 1.5 0.397805 1.5 0 
C 1.5 -0.397805 1.341951 -0.77937 1.06066 -1.06066 
C 0.77937 -1.341951 0.397805 -1.5 0 -1.5 
C -0.397805 -1.5 -0.77937 -1.341951 -1.06066 -1.06066 
C -1.341951 -0.77937 -1.5 -0.397805 -1.5 0 
C -1.5 0.397805 -1.341951 0.77937 -1.06066 1.06066 
C -0.77937 1.341951 -0.397805 1.5 0 1.5 
z
" style="stroke: #26413c"/>
    </defs>
    <g clip-path="url(#pb9a82fcd67)">
     <use xlink:href="#m9b23af7ea5" x="33.306406" y="105.686904" style="fill: #26413c; stroke: #26413c"/>
     <use xlink:href="#m9b23af7ea5" x="130.652963" y="120.131527" style="fill: #26413c; stroke: #26413c"/>
     <use xlink:href="#m9b23af7ea5" x="227.99952" y="134.645127" style="fill: #26413c; stroke: #26413c"/>
    </g>
   </g>
   <g id="line2d_65">
    <path d="M 33.306406 87.518625 
L 130.652963 104.332561 
L 227.99952 120.423053 
" clip-path="url(#pb9a82fcd67)" style="fill: none; stroke-dasharray: 2.775,1.2; stroke-dashoffset: 0; stroke: #b54c4a; stroke-width: 0.75"/>
    <defs>
     <path id="m54b275b61e" d="M -1.5 1.5 
L 1.5 1.5 
L 1.5 -1.5 
L -1.5 -1.5 
z
" style="stroke: #b54c4a; stroke-linejoin: miter"/>
    </defs>
    <g clip-path="url(#pb9a82fcd67)">
     <use xlink:href="#m54b275b61e" x="33.306406" y="87.518625" style="fill: #b54c4a; stroke: #b54c4a; stroke-linejoin: miter"/>
     <use xlink:href="#m54b275b61e" x="130.652963" y="104.332561" style="fill: #b54c4a; stroke: #b54c4a; stroke-linejoin: miter"/>
     <use xlink:href="#m54b275b61e" x="227.99952" y="120.423053" style="fill: #b54c4a; stroke: #b54c4a; stroke-linejoin: miter"/>
    </g>
   </g>
   <g id="line2d_66">
    <path d="M 33.306406 67.937208 
L 130.652963 68.986455 
L 227.99952 69.758552 
" clip-path="url(#pb9a82fcd67)" style="fill: none; stroke-dasharray: 0.75,1.2375; stroke-dashoffset: 0; stroke: #2f75b3; stroke-width: 0.75"/>
    <defs>
     <path id="mdfd7d65c67" d="M 0 -1.5 
L -1.5 1.5 
L 1.5 1.5 
z
" style="stroke: #2f75b3; stroke-linejoin: miter"/>
    </defs>
    <g clip-path="url(#pb9a82fcd67)">
     <use xlink:href="#mdfd7d65c67" x="33.306406" y="67.937208" style="fill: #2f75b3; stroke: #2f75b3; stroke-linejoin: miter"/>
     <use xlink:href="#mdfd7d65c67" x="130.652963" y="68.986455" style="fill: #2f75b3; stroke: #2f75b3; stroke-linejoin: miter"/>
     <use xlink:href="#mdfd7d65c67" x="227.99952" y="69.758552" style="fill: #2f75b3; stroke: #2f75b3; stroke-linejoin: miter"/>
    </g>
   </g>
   <g id="line2d_67">
    <path d="M 33.306406 53.242388 
L 130.652963 54.726588 
L 227.99952 54.752143 
" clip-path="url(#pb9a82fcd67)" style="fill: none; stroke-dasharray: 4.8,1.2,0.75,1.2; stroke-dashoffset: 0; stroke: #f08a2b; stroke-width: 0.75"/>
    <defs>
     <path id="m85baf033ff" d="M 0 -1.5 
L -1.5 1.5 
L 1.5 1.5 
z
" style="stroke: #f08a2b; stroke-linejoin: miter"/>
    </defs>
    <g clip-path="url(#pb9a82fcd67)">
     <use xlink:href="#m85baf033ff" x="33.306406" y="53.242388" style="fill: #f08a2b; stroke: #f08a2b; stroke-linejoin: miter"/>
     <use xlink:href="#m85baf033ff" x="130.652963" y="54.726588" style="fill: #f08a2b; stroke: #f08a2b; stroke-linejoin: miter"/>
     <use xlink:href="#m85baf033ff" x="227.99952" y="54.752143" style="fill: #f08a2b; stroke: #f08a2b; stroke-linejoin: miter"/>
    </g>
   </g>
   <g id="line2d_68">
    <path d="M 33.306406 34.625006 
L 130.652963 35.301195 
L 227.99952 36.071502 
" clip-path="url(#pb9a82fcd67)" style="fill: none; stroke: #7d5ab3; stroke-width: 0.75; stroke-linecap: square"/>
    <defs>
     <path id="mc34e90c730" d="M 0 -1.5 
L -1.5 1.5 
L 1.5 1.5 
z
" style="stroke: #7d5ab3; stroke-linejoin: miter"/>
    </defs>
    <g clip-path="url(#pb9a82fcd67)">
     <use xlink:href="#mc34e90c730" x="33.306406" y="34.625006" style="fill: #7d5ab3; stroke: #7d5ab3; stroke-linejoin: miter"/>
     <use xlink:href="#mc34e90c730" x="130.652963" y="35.301195" style="fill: #7d5ab3; stroke: #7d5ab3; stroke-linejoin: miter"/>
     <use xlink:href="#mc34e90c730" x="227.99952" y="36.071502" style="fill: #7d5ab3; stroke: #7d5ab3; stroke-linejoin: miter"/>
    </g>
   </g>
   <g id="patch_3">
    <path d="M 33.306406 141.268704 
L 33.306406 27.933741 
" style="fill: none; stroke: #000000; stroke-width: 0.5; stroke-linejoin: miter; stroke-linecap: square"/>
   </g>
   <g id="patch_4">
    <path d="M 227.99952 141.268704 
L 227.99952 27.933741 
" style="fill: none; stroke: #000000; stroke-width: 0.5; stroke-linejoin: miter; stroke-linecap: square"/>
   </g>
   <g id="patch_5">
    <path d="M 33.306406 141.268704 
L 227.99952 141.268704 
" style="fill: none; stroke: #000000; stroke-width: 0.5; stroke-linejoin: miter; stroke-linecap: square"/>
   </g>
   <g id="patch_6">
    <path d="M 33.306406 27.933741 
L 227.99952 27.933741 
" style="fill: none; stroke: #000000; stroke-width: 0.5; stroke-linejoin: miter; stroke-linecap: square"/>
   </g>
   <g id="legend_1">
    <g id="LineCollection_6">
     <path d="M 50.084579 13.6 
L 50.084579 5.6 
" style="fill: none; stroke: #26413c; stroke-width: 0.75"/>
    </g>
    <g id="line2d_69">
     <g>
      <use xlink:href="#mc671fee797" x="50.084579" y="13.6" style="fill: #26413c; stroke: #26413c"/>
     </g>
    </g>
    <g id="line2d_70">
     <g>
      <use xlink:href="#mc671fee797" x="50.084579" y="5.6" style="fill: #26413c; stroke: #26413c"/>
     </g>
    </g>
    <g id="line2d_71">
     <path d="M 42.084579 9.6 
L 58.084579 9.6 
" style="fill: none; stroke: #26413c; stroke-width: 0.75; stroke-linecap: square"/>
    </g>
    <g id="line2d_72">
     <defs>
      <path id="m597109c1a7" d="M 0 1.05 
C 0.278463 1.05 0.545559 0.939365 0.742462 0.742462 
C 0.939365 0.545559 1.05 0.278463 1.05 0 
C 1.05 -0.278463 0.939365 -0.545559 0.742462 -0.742462 
C 0.545559 -0.939365 0.278463 -1.05 0 -1.05 
C -0.278463 -1.05 -0.545559 -0.939365 -0.742462 -0.742462 
C -0.939365 -0.545559 -1.05 -0.278463 -1.05 0 
C -1.05 0.278463 -0.939365 0.545559 -0.742462 0.742462 
C -0.545559 0.939365 -0.278463 1.05 0 1.05 
z
" style="stroke: #26413c"/>
     </defs>
     <g>
      <use xlink:href="#m597109c1a7" x="50.084579" y="9.6" style="fill: #26413c; stroke: #26413c"/>
     </g>
    </g>
    <g id="text_6">
     <!-- i.i.d. ($\gamma=0$) -->
     <g transform="translate(64.484579 12.4) scale(0.08 -0.08)">
      <defs>
       <path id="NimbusRomNo9L-Regu-2e" d="M 800 646 
C 608 646 448 480 448 281 
C 448 96 608 -64 794 -64 
C 992 -64 1158 96 1158 281 
C 1158 480 992 646 800 646 
z
" transform="scale(0.015625)"/>
       <path id="NimbusRomNo9L-Regu-64" d="M 2202 -64 
L 3142 269 
L 3142 365 
C 3027 365 3014 365 2995 365 
C 2765 365 2714 435 2714 731 
L 2714 4364 
L 2682 4377 
C 2374 4268 2150 4204 1741 4096 
L 1741 3994 
C 1792 4000 1830 4000 1882 4000 
C 2118 4000 2176 3936 2176 3672 
L 2176 2669 
C 1933 2874 1760 2944 1504 2944 
C 768 2944 173 2221 173 1312 
C 173 493 653 -64 1357 -64 
C 1715 -64 1958 64 2176 365 
L 2176 -45 
L 2202 -64 
z
M 2176 653 
C 2176 608 2131 531 2067 461 
C 1952 333 1792 269 1606 269 
C 1075 269 723 781 723 1568 
C 723 2291 1037 2765 1523 2765 
C 1862 2765 2176 2464 2176 2125 
L 2176 653 
z
" transform="scale(0.015625)"/>
       <path id="NimbusRomNo9L-Regu-28" d="M 1888 4326 
C 1414 4019 1222 3853 986 3558 
C 531 3002 307 2362 307 1613 
C 307 800 544 173 1107 -480 
C 1370 -787 1536 -928 1869 -1133 
L 1946 -1030 
C 1434 -627 1254 -403 1082 77 
C 928 506 858 992 858 1632 
C 858 2304 941 2829 1114 3226 
C 1293 3622 1485 3853 1946 4224 
L 1888 4326 
z
" transform="scale(0.015625)"/>
       <path id="StandardSymL-67" d="M 2413 3181 
L 1702 987 
L 1510 1970 
C 1318 2945 1114 3264 685 3264 
C 493 3264 320 3175 218 3029 
C 77 2831 45 2671 32 2136 
L 32 2053 
L 173 2053 
C 186 2226 198 2321 224 2411 
C 294 2615 448 2742 634 2742 
C 806 2742 928 2634 1050 2372 
C 1203 2041 1370 1459 1434 988 
L 1510 457 
C 1491 394 1421 189 1299 -156 
C 1171 -507 1133 -693 1133 -910 
C 1133 -1210 1267 -1408 1472 -1408 
C 1734 -1408 1907 -1083 1907 -572 
C 1907 -375 1875 -68 1798 411 
L 3098 3181 
L 2413 3181 
z
" transform="scale(0.015625)"/>
       <path id="CMR10-3d" d="M 4397 2048 
C 4493 2048 4614 2048 4614 2177 
C 4614 2305 4493 2305 4403 2305 
L 570 2305 
C 480 2305 358 2305 358 2177 
C 358 2048 480 2048 576 2048 
L 4397 2048 
z
M 4403 832 
C 4493 832 4614 832 4614 961 
C 4614 1089 4493 1089 4397 1089 
L 576 1089 
C 480 1089 358 1089 358 961 
C 358 832 480 832 570 832 
L 4403 832 
z
" transform="scale(0.015625)"/>
       <path id="NimbusRomNo9L-Regu-29" d="M 243 -1133 
C 717 -826 909 -659 1146 -365 
C 1600 192 1824 832 1824 1581 
C 1824 2400 1587 3021 1024 3674 
C 762 3981 595 4122 262 4326 
L 186 4224 
C 698 3821 870 3597 1050 3117 
C 1203 2688 1274 2202 1274 1562 
C 1274 896 1190 365 1018 -26 
C 838 -429 646 -659 186 -1030 
L 243 -1133 
z
" transform="scale(0.015625)"/>
      </defs>
      <use xlink:href="#NimbusRomNo9L-Regu-69" transform="scale(0.996264)"/>
      <use xlink:href="#NimbusRomNo9L-Regu-2e" transform="translate(27.69517 0) scale(0.996264)"/>
      <use xlink:href="#NimbusRomNo9L-Regu-69" transform="translate(52.60177 0) scale(0.996264)"/>
      <use xlink:href="#NimbusRomNo9L-Regu-2e" transform="translate(80.296939 0) scale(0.996264)"/>
      <use xlink:href="#NimbusRomNo9L-Regu-64" transform="translate(105.20354 0) scale(0.996264)"/>
      <use xlink:href="#NimbusRomNo9L-Regu-2e" transform="translate(155.01674 0) scale(0.996264)"/>
      <use xlink:href="#NimbusRomNo9L-Regu-28" transform="translate(210.807373 0) scale(0.996264)"/>
      <use xlink:href="#StandardSymL-67" transform="translate(243.982602 0) scale(0.996264)"/>
      <use xlink:href="#CMR10-3d" transform="translate(315.336759 0) scale(0.996264)"/>
      <use xlink:href="#NimbusRomNo9L-Regu-30" transform="translate(414.884612 0) scale(0.996264)"/>
      <use xlink:href="#NimbusRomNo9L-Regu-29" transform="translate(464.697813 0) scale(0.996264)"/>
     </g>
    </g>
    <g id="LineCollection_7">
     <path d="M 50.084579 25.470434 
L 50.084579 17.470434 
" style="fill: none; stroke: #b54c4a; stroke-width: 0.75"/>
    </g>
    <g id="line2d_73">
     <g>
      <use xlink:href="#md6d2da036a" x="50.084579" y="25.470434" style="fill: #b54c4a; stroke: #b54c4a"/>
     </g>
    </g>
    <g id="line2d_74">
     <g>
      <use xlink:href="#md6d2da036a" x="50.084579" y="17.470434" style="fill: #b54c4a; stroke: #b54c4a"/>
     </g>
    </g>
    <g id="line2d_75">
     <path d="M 42.084579 21.470434 
L 58.084579 21.470434 
" style="fill: none; stroke-dasharray: 2.775,1.2; stroke-dashoffset: 0; stroke: #b54c4a; stroke-width: 0.75"/>
    </g>
    <g id="line2d_76">
     <defs>
      <path id="ma8ca05c239" d="M -1.05 1.05 
L 1.05 1.05 
L 1.05 -1.05 
L -1.05 -1.05 
z
" style="stroke: #b54c4a; stroke-linejoin: miter"/>
     </defs>
     <g>
      <use xlink:href="#ma8ca05c239" x="50.084579" y="21.470434" style="fill: #b54c4a; stroke: #b54c4a; stroke-linejoin: miter"/>
     </g>
    </g>
    <g id="text_7">
     <!-- exo ($C_{exo}=15)$ -->
     <g transform="translate(64.484579 24.270434) scale(0.08 -0.08)">
      <defs>
       <path id="NimbusRomNo9L-Regu-78" d="M 1779 0 
L 3066 0 
L 3066 96 
C 2867 96 2739 198 2541 480 
L 1722 1735 
L 2253 2502 
C 2374 2675 2566 2778 2771 2778 
L 2771 2880 
L 1760 2880 
L 1760 2778 
C 1952 2778 2016 2740 2016 2649 
C 2016 2571 1939 2430 1779 2229 
C 1747 2191 1670 2075 1587 1946 
L 1498 2074 
C 1318 2342 1203 2560 1203 2643 
C 1203 2733 1286 2778 1478 2778 
L 1478 2880 
L 154 2880 
L 154 2778 
L 211 2778 
C 403 2778 506 2695 704 2396 
L 1306 1479 
L 576 422 
C 384 160 320 115 109 96 
L 109 0 
L 1037 0 
L 1037 96 
C 858 96 781 128 781 211 
C 781 250 826 346 909 474 
L 1414 1261 
L 1997 365 
C 2022 326 2035 288 2035 250 
C 2035 123 1990 96 1779 96 
L 1779 0 
z
" transform="scale(0.015625)"/>
       <path id="NimbusRomNo9L-Regu-6f" d="M 1600 2944 
C 768 2944 186 2330 186 1446 
C 186 582 781 -64 1587 -64 
C 2394 -64 3008 614 3008 1498 
C 3008 2336 2419 2944 1600 2944 
z
M 1517 2765 
C 2054 2765 2432 2150 2432 1274 
C 2432 550 2144 115 1664 115 
C 1414 115 1178 269 1043 525 
C 864 858 762 1306 762 1760 
C 762 2368 1062 2765 1517 2765 
z
" transform="scale(0.015625)"/>
       <path id="NimbusRomNo9L-ReguItal-43" d="M 4173 3017 
L 4410 4288 
L 4275 4288 
C 4224 4185 4160 4147 4032 4147 
C 3981 4147 3904 4159 3770 4188 
C 3482 4253 3226 4288 3021 4288 
C 1658 4288 422 3010 422 1597 
C 422 623 1114 -64 2093 -64 
C 2752 -64 3264 216 3840 886 
L 3731 975 
C 3155 414 2784 223 2259 223 
C 1549 223 1139 708 1139 1532 
C 1139 2291 1446 3062 1946 3580 
C 2253 3892 2656 4070 3078 4070 
C 3667 4070 3994 3726 4058 3036 
L 4173 3017 
z
" transform="scale(0.015625)"/>
       <path id="NimbusRomNo9L-ReguItal-65" d="M 2291 701 
C 1830 325 1632 223 1357 223 
C 992 223 755 452 755 797 
C 755 892 768 988 819 1192 
L 998 1217 
C 1958 1351 2637 1835 2637 2383 
C 2637 2650 2445 2816 2125 2816 
C 1203 2816 198 1765 198 809 
C 198 292 544 -64 1043 -64 
C 1498 -64 1990 198 2368 624 
L 2291 701 
z
M 973 1612 
C 1190 2179 1664 2670 1990 2670 
C 2125 2670 2214 2567 2214 2421 
C 2214 2223 2093 1995 1894 1804 
C 1658 1580 1414 1466 864 1332 
L 973 1612 
z
" transform="scale(0.015625)"/>
       <path id="NimbusRomNo9L-ReguItal-78" d="M 2573 714 
C 2522 656 2490 618 2432 541 
C 2285 351 2208 287 2138 287 
C 2042 287 1984 370 1939 548 
C 1926 599 1920 637 1914 656 
C 1754 1299 1683 1592 1683 1688 
C 1965 2179 2195 2459 2310 2459 
C 2349 2459 2400 2440 2464 2408 
C 2541 2363 2586 2350 2637 2350 
C 2771 2350 2861 2446 2861 2580 
C 2861 2714 2752 2816 2598 2816 
C 2317 2816 2074 2586 1632 1905 
L 1562 2255 
C 1472 2689 1402 2816 1229 2816 
C 1088 2816 870 2759 480 2631 
L 410 2606 
L 435 2510 
C 678 2567 736 2580 794 2580 
C 954 2580 992 2523 1082 2140 
L 1267 1357 
L 742 612 
C 614 421 486 306 416 306 
C 378 306 314 325 250 364 
C 166 408 96 428 45 428 
C -77 428 -173 332 -173 204 
C -173 38 -45 -64 147 -64 
C 346 -64 422 -7 742 382 
C 915 586 1050 759 1318 1128 
L 1510 363 
C 1594 38 1677 -64 1882 -64 
C 2125 -64 2291 89 2662 663 
L 2573 714 
z
" transform="scale(0.015625)"/>
       <path id="NimbusRomNo9L-ReguItal-6f" d="M 2080 2816 
C 1120 2816 173 1827 173 824 
C 173 275 531 -70 1114 -70 
C 1536 -70 1946 121 2317 485 
C 2739 900 2995 1443 2995 1922 
C 2995 2452 2624 2816 2080 2816 
z
M 2003 2682 
C 2278 2682 2458 2446 2458 2082 
C 2458 1616 2246 977 1965 562 
C 1728 224 1485 64 1210 64 
C 909 64 710 294 710 645 
C 710 1118 896 1680 1210 2133 
C 1459 2491 1728 2682 2003 2682 
z
" transform="scale(0.015625)"/>
       <path id="NimbusRomNo9L-Regu-35" d="M 1158 3776 
L 2413 3776 
C 2515 3776 2541 3789 2560 3834 
L 2803 4403 
L 2746 4448 
C 2650 4314 2586 4282 2451 4282 
L 1114 4282 
L 416 2759 
C 410 2746 410 2740 410 2727 
C 410 2695 435 2676 486 2676 
C 691 2676 947 2631 1210 2547 
C 1946 2309 2285 1910 2285 1274 
C 2285 656 1894 173 1395 173 
C 1267 173 1158 218 966 360 
C 762 508 614 572 480 572 
C 294 572 205 495 205 334 
C 205 90 506 -64 986 -64 
C 1523 -64 1984 110 2304 438 
C 2598 728 2733 1094 2733 1583 
C 2733 2046 2611 2342 2291 2663 
C 2010 2947 1645 3094 890 3229 
L 1158 3776 
z
" transform="scale(0.015625)"/>
      </defs>
      <use xlink:href="#NimbusRomNo9L-Regu-65" transform="scale(0.996264)"/>
      <use xlink:href="#NimbusRomNo9L-Regu-78" transform="translate(42.740176 0) scale(0.996264)"/>
      <use xlink:href="#NimbusRomNo9L-Regu-6f" transform="translate(92.553376 0) scale(0.996264)"/>
      <use xlink:href="#NimbusRomNo9L-Regu-28" transform="translate(167.273177 0) scale(0.996264)"/>
      <use xlink:href="#NimbusRomNo9L-ReguItal-43" transform="translate(195.467057 0) scale(0.996264)"/>
      <use xlink:href="#NimbusRomNo9L-ReguItal-65" transform="translate(259.426473 -14.943915) scale(0.737241)"/>
      <use xlink:href="#NimbusRomNo9L-ReguItal-78" transform="translate(290.685457 -14.943915) scale(0.737241)"/>
      <use xlink:href="#NimbusRomNo9L-ReguItal-6f" transform="translate(323.638954 -14.943915) scale(0.737241)"/>
      <use xlink:href="#CMR10-3d" transform="translate(383.138274 0) scale(0.996264)"/>
      <use xlink:href="#NimbusRomNo9L-Regu-31" transform="translate(482.686128 0) scale(0.996264)"/>
      <use xlink:href="#NimbusRomNo9L-Regu-35" transform="translate(532.499328 0) scale(0.996264)"/>
      <use xlink:href="#CMR10-29" transform="translate(582.312529 0) scale(0.996264)"/>
     </g>
    </g>
    <g id="LineCollection_8">
     <path d="M 126.736503 13.6 
L 126.736503 5.6 
" style="fill: none; stroke: #2f75b3; stroke-width: 0.75"/>
    </g>
    <g id="line2d_77">
     <g>
      <use xlink:href="#md5f9725806" x="126.736503" y="13.6" style="fill: #2f75b3; stroke: #2f75b3"/>
     </g>
    </g>
    <g id="line2d_78">
     <g>
      <use xlink:href="#md5f9725806" x="126.736503" y="5.6" style="fill: #2f75b3; stroke: #2f75b3"/>
     </g>
    </g>
    <g id="line2d_79">
     <path d="M 118.736503 9.6 
L 134.736503 9.6 
" style="fill: none; stroke-dasharray: 0.75,1.2375; stroke-dashoffset: 0; stroke: #2f75b3; stroke-width: 0.75"/>
    </g>
    <g id="line2d_80">
     <defs>
      <path id="mf26a14054e" d="M 0 -1.05 
L -1.05 1.05 
L 1.05 1.05 
z
" style="stroke: #2f75b3; stroke-linejoin: miter"/>
     </defs>
     <g>
      <use xlink:href="#mf26a14054e" x="126.736503" y="9.6" style="fill: #2f75b3; stroke: #2f75b3; stroke-linejoin: miter"/>
     </g>
    </g>
    <g id="text_8">
     <!-- $\gamma=0.25$ -->
     <g transform="translate(141.136503 12.4) scale(0.08 -0.08)">
      <defs>
       <path id="CMMI10-3a" d="M 1229 338 
C 1229 522 1075 675 890 675 
C 704 675 550 522 550 338 
C 550 153 704 0 890 0 
C 1075 0 1229 153 1229 338 
z
" transform="scale(0.015625)"/>
       <path id="NimbusRomNo9L-Regu-32" d="M 3040 875 
L 2957 907 
C 2720 544 2637 486 2349 486 
L 819 486 
L 1894 1609 
C 2464 2202 2714 2687 2714 3185 
C 2714 3823 2195 4313 1530 4313 
C 1178 4313 845 4173 608 3918 
C 403 3700 307 3496 198 3043 
L 333 3011 
C 589 3636 819 3840 1261 3840 
C 1798 3840 2163 3476 2163 2940 
C 2163 2443 1869 1850 1331 1282 
L 192 77 
L 192 0 
L 2688 0 
L 3040 875 
z
" transform="scale(0.015625)"/>
      </defs>
      <use xlink:href="#StandardSymL-67" transform="scale(0.996264)"/>
      <use xlink:href="#CMR10-3d" transform="translate(71.354157 0) scale(0.996264)"/>
      <use xlink:href="#NimbusRomNo9L-Regu-30" transform="translate(170.90201 0) scale(0.996264)"/>
      <use xlink:href="#CMMI10-3a" transform="translate(220.71521 0) scale(0.996264)"/>
      <use xlink:href="#NimbusRomNo9L-Regu-32" transform="translate(248.310717 0) scale(0.996264)"/>
      <use xlink:href="#NimbusRomNo9L-Regu-35" transform="translate(298.123918 0) scale(0.996264)"/>
     </g>
    </g>
    <g id="LineCollection_9">
     <path d="M 126.736503 25.09285 
L 126.736503 17.09285 
" style="fill: none; stroke: #f08a2b; stroke-width: 0.75"/>
    </g>
    <g id="line2d_81">
     <g>
      <use xlink:href="#mdd522f1fe2" x="126.736503" y="25.09285" style="fill: #f08a2b; stroke: #f08a2b"/>
     </g>
    </g>
    <g id="line2d_82">
     <g>
      <use xlink:href="#mdd522f1fe2" x="126.736503" y="17.09285" style="fill: #f08a2b; stroke: #f08a2b"/>
     </g>
    </g>
    <g id="line2d_83">
     <path d="M 118.736503 21.09285 
L 134.736503 21.09285 
" style="fill: none; stroke-dasharray: 4.8,1.2,0.75,1.2; stroke-dashoffset: 0; stroke: #f08a2b; stroke-width: 0.75"/>
    </g>
    <g id="line2d_84">
     <defs>
      <path id="m1998e6c432" d="M 0 -1.05 
L -1.05 1.05 
L 1.05 1.05 
z
" style="stroke: #f08a2b; stroke-linejoin: miter"/>
     </defs>
     <g>
      <use xlink:href="#m1998e6c432" x="126.736503" y="21.09285" style="fill: #f08a2b; stroke: #f08a2b; stroke-linejoin: miter"/>
     </g>
    </g>
    <g id="text_9">
     <!-- $\gamma=0.5$ -->
     <g transform="translate(141.136503 23.89285) scale(0.08 -0.08)">
      <use xlink:href="#StandardSymL-67" transform="scale(0.996264)"/>
      <use xlink:href="#CMR10-3d" transform="translate(71.354157 0) scale(0.996264)"/>
      <use xlink:href="#NimbusRomNo9L-Regu-30" transform="translate(170.90201 0) scale(0.996264)"/>
      <use xlink:href="#CMMI10-3a" transform="translate(220.71521 0) scale(0.996264)"/>
      <use xlink:href="#NimbusRomNo9L-Regu-35" transform="translate(248.310717 0) scale(0.996264)"/>
     </g>
    </g>
    <g id="LineCollection_10">
     <path d="M 180.971453 13.6 
L 180.971453 5.6 
" style="fill: none; stroke: #7d5ab3; stroke-width: 0.75"/>
    </g>
    <g id="line2d_85">
     <g>
      <use xlink:href="#m2d8e63385f" x="180.971453" y="13.6" style="fill: #7d5ab3; stroke: #7d5ab3"/>
     </g>
    </g>
    <g id="line2d_86">
     <g>
      <use xlink:href="#m2d8e63385f" x="180.971453" y="5.6" style="fill: #7d5ab3; stroke: #7d5ab3"/>
     </g>
    </g>
    <g id="line2d_87">
     <path d="M 172.971453 9.6 
L 188.971453 9.6 
" style="fill: none; stroke: #7d5ab3; stroke-width: 0.75; stroke-linecap: square"/>
    </g>
    <g id="line2d_88">
     <defs>
      <path id="mbe1915d2d9" d="M 0 -1.05 
L -1.05 1.05 
L 1.05 1.05 
z
" style="stroke: #7d5ab3; stroke-linejoin: miter"/>
     </defs>
     <g>
      <use xlink:href="#mbe1915d2d9" x="180.971453" y="9.6" style="fill: #7d5ab3; stroke: #7d5ab3; stroke-linejoin: miter"/>
     </g>
    </g>
    <g id="text_10">
     <!-- $\gamma=1.0$ -->
     <g transform="translate(195.371453 12.4) scale(0.08 -0.08)">
      <use xlink:href="#StandardSymL-67" transform="scale(0.996264)"/>
      <use xlink:href="#CMR10-3d" transform="translate(71.354157 0) scale(0.996264)"/>
      <use xlink:href="#NimbusRomNo9L-Regu-31" transform="translate(170.90201 0) scale(0.996264)"/>
      <use xlink:href="#CMMI10-3a" transform="translate(220.71521 0) scale(0.996264)"/>
      <use xlink:href="#NimbusRomNo9L-Regu-30" transform="translate(248.310717 0) scale(0.996264)"/>
     </g>
    </g>
   </g>
  </g>
 </g>
 <defs>
  <clipPath id="pb9a82fcd67">
   <rect x="33.306406" y="27.933741" width="194.693114" height="113.334963"/>
  </clipPath>
 </defs>
</svg>
