<?xml version="1.0" encoding="utf-8" standalone="no"?>
<!DOCTYPE svg PUBLIC "-//W3C//DTD SVG 1.1//EN"
  "http://www.w3.org/Graphics/SVG/1.1/DTD/svg11.dtd">
<svg xmlns:xlink="http://www.w3.org/1999/xlink" width="231.599512pt" height="166.872176pt" viewBox="0 0 231.599512 166.872176" xmlns="http://www.w3.org/2000/svg" version="1.1">
 <metadata>
  <rdf:RDF xmlns:dc="http://purl.org/dc/elements/1.1/" xmlns:cc="http://creativecommons.org/ns#" xmlns:rdf="http://www.w3.org/1999/02/22-rdf-syntax-ns#">
   <cc:Work>
    <dc:type rdf:resource="http://purl.org/dc/dcmitype/StillImage"/>
    <dc:date>2025-11-18T18:32:48.884950</dc:date>
    <dc:format>image/svg+xml</dc:format>
    <dc:creator>
     <cc:Agent>
      <dc:title>Matplotlib v3.9.4, https://matplotlib.org/</dc:title>
     </cc:Agent>
    </dc:creator>
   </cc:Work>
  </rdf:RDF>
 </metadata>
 <defs>
  <style type="text/css">*{stroke-linejoin: round; stroke-linecap: butt}</style>
 </defs>
 <g id="figure_1">
  <g id="patch_1">
   <path d="M 0 166.872176 
L 231.599512 166.872176 
L 231.599512 0 
L 0 0 
z
" style="fill: #ffffff"/>
  </g>
  <g id="axes_1">
   <g id="patch_2">
    <path d="M 31.589821 140.462704 
L 226.33156 140.462704 
L 226.33156 27.772541 
L 31.589821 27.772541 
z
" style="fill: #ffffff"/>
   </g>
   <g id="matplotlib.axis_1">
    <g id="xtick_1">
     <g id="line2d_1">
      <defs>
       <path id="ma8a51450e6" d="M 0 0 
L 0 -3 
" style="stroke: #000000; stroke-width: 0.5"/>
      </defs>
      <g>
       <use xlink:href="#ma8a51450e6" x="35.229853" y="140.462704" style="stroke: #000000; stroke-width: 0.5"/>
      </g>
     </g>
     <g id="line2d_2">
      <defs>
       <path id="m60254630c2" d="M 0 0 
L 0 3 
" style="stroke: #000000; stroke-width: 0.5"/>
      </defs>
      <g>
       <use xlink:href="#m60254630c2" x="35.229853" y="27.772541" style="stroke: #000000; stroke-width: 0.5"/>
      </g>
     </g>
     <g id="text_1">
      <!-- $\mathdefault{0.000}$ -->
      <g transform="translate(28.424411 148.015439) scale(0.06 -0.06)">
       <defs>
        <path id="NimbusRomNo9L-Regu-30" d="M 1626 4352 
C 1274 4352 1005 4244 768 4020 
C 397 3661 154 2925 154 2176 
C 154 1479 365 730 666 372 
C 902 90 1229 -64 1600 -64 
C 1926 -64 2202 45 2432 269 
C 2803 621 3046 1364 3046 2138 
C 3046 3450 2464 4352 1626 4352 
z
M 1606 4186 
C 2144 4186 2432 3463 2432 2125 
C 2432 788 2150 103 1600 103 
C 1050 103 768 788 768 2119 
C 768 3476 1056 4186 1606 4186 
z
" transform="scale(0.015625)"/>
        <path id="CMMI10-3a" d="M 1229 338 
C 1229 522 1075 675 890 675 
C 704 675 550 522 550 338 
C 550 153 704 0 890 0 
C 1075 0 1229 153 1229 338 
z
" transform="scale(0.015625)"/>
       </defs>
       <use xlink:href="#NimbusRomNo9L-Regu-30" transform="scale(0.996264)"/>
       <use xlink:href="#CMMI10-3a" transform="translate(49.8132 0) scale(0.996264)"/>
       <use xlink:href="#NimbusRomNo9L-Regu-30" transform="translate(77.408707 0) scale(0.996264)"/>
       <use xlink:href="#NimbusRomNo9L-Regu-30" transform="translate(127.221908 0) scale(0.996264)"/>
       <use xlink:href="#NimbusRomNo9L-Regu-30" transform="translate(177.035108 0) scale(0.996264)"/>
      </g>
     </g>
    </g>
    <g id="xtick_2">
     <g id="line2d_3">
      <g>
       <use xlink:href="#ma8a51450e6" x="97.217925" y="140.462704" style="stroke: #000000; stroke-width: 0.5"/>
      </g>
     </g>
     <g id="line2d_4">
      <g>
       <use xlink:href="#m60254630c2" x="97.217925" y="27.772541" style="stroke: #000000; stroke-width: 0.5"/>
      </g>
     </g>
     <g id="text_2">
      <!-- $\mathdefault{0.015}$ -->
      <g transform="translate(90.412483 148.015439) scale(0.06 -0.06)">
       <defs>
        <path id="NimbusRomNo9L-Regu-31" d="M 1862 4339 
L 710 3757 
L 710 3667 
C 787 3699 858 3725 883 3738 
C 998 3783 1107 3808 1171 3808 
C 1306 3808 1363 3711 1363 3505 
L 1363 592 
C 1363 379 1312 232 1210 173 
C 1114 116 1024 96 755 96 
L 755 0 
L 2522 0 
L 2522 96 
C 2016 96 1914 160 1914 470 
L 1914 4327 
L 1862 4339 
z
" transform="scale(0.015625)"/>
        <path id="NimbusRomNo9L-Regu-35" d="M 1158 3776 
L 2413 3776 
C 2515 3776 2541 3789 2560 3834 
L 2803 4403 
L 2746 4448 
C 2650 4314 2586 4282 2451 4282 
L 1114 4282 
L 416 2759 
C 410 2746 410 2740 410 2727 
C 410 2695 435 2676 486 2676 
C 691 2676 947 2631 1210 2547 
C 1946 2309 2285 1910 2285 1274 
C 2285 656 1894 173 1395 173 
C 1267 173 1158 218 966 360 
C 762 508 614 572 480 572 
C 294 572 205 495 205 334 
C 205 90 506 -64 986 -64 
C 1523 -64 1984 110 2304 438 
C 2598 728 2733 1094 2733 1583 
C 2733 2046 2611 2342 2291 2663 
C 2010 2947 1645 3094 890 3229 
L 1158 3776 
z
" transform="scale(0.015625)"/>
       </defs>
       <use xlink:href="#NimbusRomNo9L-Regu-30" transform="scale(0.996264)"/>
       <use xlink:href="#CMMI10-3a" transform="translate(49.8132 0) scale(0.996264)"/>
       <use xlink:href="#NimbusRomNo9L-Regu-30" transform="translate(77.408707 0) scale(0.996264)"/>
       <use xlink:href="#NimbusRomNo9L-Regu-31" transform="translate(127.221908 0) scale(0.996264)"/>
       <use xlink:href="#NimbusRomNo9L-Regu-35" transform="translate(177.035108 0) scale(0.996264)"/>
      </g>
     </g>
    </g>
    <g id="xtick_3">
     <g id="line2d_5">
      <g>
       <use xlink:href="#ma8a51450e6" x="159.205998" y="140.462704" style="stroke: #000000; stroke-width: 0.5"/>
      </g>
     </g>
     <g id="line2d_6">
      <g>
       <use xlink:href="#m60254630c2" x="159.205998" y="27.772541" style="stroke: #000000; stroke-width: 0.5"/>
      </g>
     </g>
     <g id="text_3">
      <!-- $\mathdefault{0.030}$ -->
      <g transform="translate(152.400555 148.015439) scale(0.06 -0.06)">
       <defs>
        <path id="NimbusRomNo9L-Regu-33" d="M 979 2138 
C 1357 2138 1504 2125 1658 2068 
C 2054 1927 2304 1562 2304 1120 
C 2304 583 1939 167 1466 167 
C 1293 167 1165 212 928 365 
C 736 480 627 525 518 525 
C 371 525 275 436 275 301 
C 275 77 550 -64 998 -64 
C 1491 -64 1997 103 2298 365 
C 2598 628 2765 999 2765 1428 
C 2765 1754 2662 2055 2477 2253 
C 2349 2394 2227 2471 1946 2592 
C 2387 2893 2547 3130 2547 3476 
C 2547 3994 2138 4352 1549 4352 
C 1229 4352 947 4244 717 4039 
C 525 3866 429 3699 288 3315 
L 384 3290 
C 646 3757 934 3968 1338 3968 
C 1754 3968 2042 3687 2042 3284 
C 2042 3053 1946 2823 1786 2663 
C 1594 2471 1414 2375 979 2221 
L 979 2138 
z
" transform="scale(0.015625)"/>
       </defs>
       <use xlink:href="#NimbusRomNo9L-Regu-30" transform="scale(0.996264)"/>
       <use xlink:href="#CMMI10-3a" transform="translate(49.8132 0) scale(0.996264)"/>
       <use xlink:href="#NimbusRomNo9L-Regu-30" transform="translate(77.408707 0) scale(0.996264)"/>
       <use xlink:href="#NimbusRomNo9L-Regu-33" transform="translate(127.221908 0) scale(0.996264)"/>
       <use xlink:href="#NimbusRomNo9L-Regu-30" transform="translate(177.035108 0) scale(0.996264)"/>
      </g>
     </g>
    </g>
    <g id="xtick_4">
     <g id="line2d_7">
      <g>
       <use xlink:href="#ma8a51450e6" x="221.19407" y="140.462704" style="stroke: #000000; stroke-width: 0.5"/>
      </g>
     </g>
     <g id="line2d_8">
      <g>
       <use xlink:href="#m60254630c2" x="221.19407" y="27.772541" style="stroke: #000000; stroke-width: 0.5"/>
      </g>
     </g>
     <g id="text_4">
      <!-- $\mathdefault{0.045}$ -->
      <g transform="translate(214.388627 148.015439) scale(0.06 -0.06)">
       <defs>
        <path id="NimbusRomNo9L-Regu-34" d="M 3021 1497 
L 2368 1497 
L 2368 4352 
L 2086 4352 
L 77 1497 
L 77 1088 
L 1875 1088 
L 1875 32 
L 2368 32 
L 2368 1088 
L 3021 1088 
L 3021 1497 
z
M 1869 1497 
L 333 1497 
L 1869 3698 
L 1869 1497 
z
" transform="scale(0.015625)"/>
       </defs>
       <use xlink:href="#NimbusRomNo9L-Regu-30" transform="scale(0.996264)"/>
       <use xlink:href="#CMMI10-3a" transform="translate(49.8132 0) scale(0.996264)"/>
       <use xlink:href="#NimbusRomNo9L-Regu-30" transform="translate(77.408707 0) scale(0.996264)"/>
       <use xlink:href="#NimbusRomNo9L-Regu-34" transform="translate(127.221908 0) scale(0.996264)"/>
       <use xlink:href="#NimbusRomNo9L-Regu-35" transform="translate(177.035108 0) scale(0.996264)"/>
      </g>
     </g>
    </g>
    <g id="xtick_5">
     <g id="line2d_9">
      <defs>
       <path id="me9f8340f01" d="M 0 0 
L 0 -1.5 
" style="stroke: #000000; stroke-width: 0.5"/>
      </defs>
      <g>
       <use xlink:href="#me9f8340f01" x="50.726871" y="140.462704" style="stroke: #000000; stroke-width: 0.5"/>
      </g>
     </g>
     <g id="line2d_10">
      <defs>
       <path id="m5b73e18aea" d="M 0 0 
L 0 1.5 
" style="stroke: #000000; stroke-width: 0.5"/>
      </defs>
      <g>
       <use xlink:href="#m5b73e18aea" x="50.726871" y="27.772541" style="stroke: #000000; stroke-width: 0.5"/>
      </g>
     </g>
    </g>
    <g id="xtick_6">
     <g id="line2d_11">
      <g>
       <use xlink:href="#me9f8340f01" x="66.223889" y="140.462704" style="stroke: #000000; stroke-width: 0.5"/>
      </g>
     </g>
     <g id="line2d_12">
      <g>
       <use xlink:href="#m5b73e18aea" x="66.223889" y="27.772541" style="stroke: #000000; stroke-width: 0.5"/>
      </g>
     </g>
    </g>
    <g id="xtick_7">
     <g id="line2d_13">
      <g>
       <use xlink:href="#me9f8340f01" x="81.720907" y="140.462704" style="stroke: #000000; stroke-width: 0.5"/>
      </g>
     </g>
     <g id="line2d_14">
      <g>
       <use xlink:href="#m5b73e18aea" x="81.720907" y="27.772541" style="stroke: #000000; stroke-width: 0.5"/>
      </g>
     </g>
    </g>
    <g id="xtick_8">
     <g id="line2d_15">
      <g>
       <use xlink:href="#me9f8340f01" x="112.714943" y="140.462704" style="stroke: #000000; stroke-width: 0.5"/>
      </g>
     </g>
     <g id="line2d_16">
      <g>
       <use xlink:href="#m5b73e18aea" x="112.714943" y="27.772541" style="stroke: #000000; stroke-width: 0.5"/>
      </g>
     </g>
    </g>
    <g id="xtick_9">
     <g id="line2d_17">
      <g>
       <use xlink:href="#me9f8340f01" x="128.211962" y="140.462704" style="stroke: #000000; stroke-width: 0.5"/>
      </g>
     </g>
     <g id="line2d_18">
      <g>
       <use xlink:href="#m5b73e18aea" x="128.211962" y="27.772541" style="stroke: #000000; stroke-width: 0.5"/>
      </g>
     </g>
    </g>
    <g id="xtick_10">
     <g id="line2d_19">
      <g>
       <use xlink:href="#me9f8340f01" x="143.70898" y="140.462704" style="stroke: #000000; stroke-width: 0.5"/>
      </g>
     </g>
     <g id="line2d_20">
      <g>
       <use xlink:href="#m5b73e18aea" x="143.70898" y="27.772541" style="stroke: #000000; stroke-width: 0.5"/>
      </g>
     </g>
    </g>
    <g id="xtick_11">
     <g id="line2d_21">
      <g>
       <use xlink:href="#me9f8340f01" x="174.703016" y="140.462704" style="stroke: #000000; stroke-width: 0.5"/>
      </g>
     </g>
     <g id="line2d_22">
      <g>
       <use xlink:href="#m5b73e18aea" x="174.703016" y="27.772541" style="stroke: #000000; stroke-width: 0.5"/>
      </g>
     </g>
    </g>
    <g id="xtick_12">
     <g id="line2d_23">
      <g>
       <use xlink:href="#me9f8340f01" x="190.200034" y="140.462704" style="stroke: #000000; stroke-width: 0.5"/>
      </g>
     </g>
     <g id="line2d_24">
      <g>
       <use xlink:href="#m5b73e18aea" x="190.200034" y="27.772541" style="stroke: #000000; stroke-width: 0.5"/>
      </g>
     </g>
    </g>
    <g id="xtick_13">
     <g id="line2d_25">
      <g>
       <use xlink:href="#me9f8340f01" x="205.697052" y="140.462704" style="stroke: #000000; stroke-width: 0.5"/>
      </g>
     </g>
     <g id="line2d_26">
      <g>
       <use xlink:href="#m5b73e18aea" x="205.697052" y="27.772541" style="stroke: #000000; stroke-width: 0.5"/>
      </g>
     </g>
    </g>
    <g id="text_5">
     <!-- Budget Ratio $C_T/T$ -->
     <g transform="translate(90.308973 160.781516) scale(0.1 -0.1)">
      <defs>
       <path id="NimbusRomNo9L-Regu-42" d="M 109 4237 
L 109 4096 
C 646 4096 723 4026 723 3548 
L 723 689 
C 723 212 640 128 109 128 
L 109 0 
L 2246 0 
C 2746 0 3200 136 3437 356 
C 3667 564 3795 855 3795 1165 
C 3795 1451 3680 1710 3482 1897 
C 3290 2072 3117 2150 2701 2253 
C 3034 2335 3168 2398 3322 2531 
C 3482 2671 3578 2903 3578 3163 
C 3578 3871 3008 4237 1901 4237 
L 109 4237 
z
M 1376 2112 
C 1997 2112 2291 2080 2522 1982 
C 2886 1827 3059 1568 3059 1159 
C 3059 809 2925 555 2669 406 
C 2464 290 2202 238 1779 238 
C 1466 238 1376 296 1376 504 
L 1376 2112 
z
M 1376 2368 
L 1376 3812 
C 1376 3944 1421 4001 1517 4001 
L 1798 4001 
C 2534 4001 2925 3699 2925 3137 
C 2925 2646 2586 2368 1984 2368 
L 1376 2368 
z
" transform="scale(0.015625)"/>
       <path id="NimbusRomNo9L-Regu-75" d="M 3066 320 
L 3034 320 
C 2739 320 2669 390 2669 685 
L 2669 2880 
L 1658 2880 
L 1658 2758 
C 2054 2758 2131 2694 2131 2375 
L 2131 875 
C 2131 697 2099 607 2010 537 
C 1837 397 1638 320 1446 320 
C 1197 320 992 537 992 805 
L 992 2880 
L 58 2880 
L 58 2778 
C 365 2778 454 2682 454 2387 
L 454 770 
C 454 263 762 -64 1229 -64 
C 1466 -64 1715 38 1888 211 
L 2163 486 
L 2163 -45 
L 2189 -58 
C 2509 70 2739 141 3066 230 
L 3066 320 
z
" transform="scale(0.015625)"/>
       <path id="NimbusRomNo9L-Regu-64" d="M 2202 -64 
L 3142 269 
L 3142 365 
C 3027 365 3014 365 2995 365 
C 2765 365 2714 435 2714 731 
L 2714 4364 
L 2682 4377 
C 2374 4268 2150 4204 1741 4096 
L 1741 3994 
C 1792 4000 1830 4000 1882 4000 
C 2118 4000 2176 3936 2176 3672 
L 2176 2669 
C 1933 2874 1760 2944 1504 2944 
C 768 2944 173 2221 173 1312 
C 173 493 653 -64 1357 -64 
C 1715 -64 1958 64 2176 365 
L 2176 -45 
L 2202 -64 
z
M 2176 653 
C 2176 608 2131 531 2067 461 
C 1952 333 1792 269 1606 269 
C 1075 269 723 781 723 1568 
C 723 2291 1037 2765 1523 2765 
C 1862 2765 2176 2464 2176 2125 
L 2176 653 
z
" transform="scale(0.015625)"/>
       <path id="NimbusRomNo9L-Regu-67" d="M 3008 2496 
L 3008 2746 
L 2515 2746 
C 2387 2746 2291 2763 2163 2802 
L 2022 2847 
C 1850 2903 1677 2931 1510 2931 
C 915 2931 442 2467 442 1881 
C 442 1476 614 1230 1037 1018 
C 915 906 800 799 762 768 
C 550 588 467 463 467 338 
C 467 206 544 131 806 6 
C 352 -329 179 -543 179 -781 
C 179 -1124 678 -1408 1286 -1408 
C 1766 -1408 2266 -1238 2598 -962 
C 2842 -759 2950 -548 2950 -299 
C 2950 108 2650 384 2176 384 
L 1350 384 
C 1011 384 851 443 851 548 
C 851 678 1062 908 1235 960 
C 1293 953 1338 947 1357 947 
C 1478 934 1562 928 1600 928 
C 1837 928 2093 1026 2291 1203 
C 2502 1387 2598 1617 2598 1945 
C 2598 2135 2566 2286 2477 2496 
L 3008 2496 
z
M 941 -13 
C 1152 -58 1664 -96 1978 -96 
C 2560 -96 2771 -180 2771 -414 
C 2771 -791 2285 -1043 1562 -1043 
C 998 -1043 627 -855 627 -570 
C 627 -420 672 -336 941 -13 
z
M 973 2145 
C 973 2526 1152 2752 1446 2752 
C 1645 2752 1811 2642 1914 2449 
C 2029 2223 2106 1927 2106 1675 
C 2106 1314 1920 1088 1626 1088 
C 1242 1088 973 1507 973 2126 
L 973 2145 
z
" transform="scale(0.015625)"/>
       <path id="NimbusRomNo9L-Regu-65" d="M 2611 1053 
C 2304 564 2029 378 1619 378 
C 1254 378 979 564 794 930 
C 678 1174 634 1386 621 1779 
L 2592 1779 
C 2541 2193 2477 2377 2317 2581 
C 2125 2811 1830 2944 1498 2944 
C 1178 2944 877 2829 634 2611 
C 333 2349 160 1894 160 1370 
C 160 486 621 -64 1357 -64 
C 1965 -64 2445 315 2714 1008 
L 2611 1053 
z
M 634 1984 
C 704 2479 922 2714 1312 2714 
C 1702 2714 1856 2535 1939 1984 
L 634 1984 
z
" transform="scale(0.015625)"/>
       <path id="NimbusRomNo9L-Regu-74" d="M 1632 2880 
L 986 2880 
L 986 3622 
C 986 3686 979 3706 941 3706 
C 896 3648 858 3590 813 3526 
C 570 3174 294 2867 192 2841 
C 122 2794 83 2748 83 2715 
C 83 2695 90 2682 109 2682 
L 448 2682 
L 448 751 
C 448 212 640 -64 1018 -64 
C 1331 -64 1574 90 1786 423 
L 1702 493 
C 1568 333 1459 269 1318 269 
C 1082 269 986 443 986 847 
L 986 2682 
L 1632 2682 
L 1632 2880 
z
" transform="scale(0.015625)"/>
       <path id="NimbusRomNo9L-Regu-52" d="M 4218 121 
C 3974 140 3846 205 3661 424 
L 2342 2061 
C 2771 2143 2963 2219 3174 2388 
C 3379 2553 3501 2818 3501 3113 
C 3501 3385 3418 3618 3251 3801 
C 3008 4059 2477 4224 1875 4224 
L 109 4224 
L 109 4102 
C 589 4051 653 3981 653 3528 
L 653 765 
C 653 236 589 159 109 121 
L 109 0 
L 1882 0 
L 1882 134 
C 1389 134 1306 219 1306 692 
L 1306 1984 
L 1664 1984 
L 3187 0 
L 4218 0 
L 4218 121 
z
M 1306 3762 
C 1306 3937 1376 3987 1632 3987 
C 2432 3987 2803 3716 2803 3123 
C 2803 2807 2669 2542 2438 2423 
C 2144 2258 1920 2221 1306 2221 
L 1306 3762 
z
" transform="scale(0.015625)"/>
       <path id="NimbusRomNo9L-Regu-61" d="M 2829 423 
C 2720 333 2643 301 2547 301 
C 2400 301 2355 390 2355 672 
L 2355 1920 
C 2355 2253 2323 2438 2227 2592 
C 2086 2822 1811 2944 1434 2944 
C 832 2944 358 2630 358 2227 
C 358 2080 486 1952 634 1952 
C 787 1952 922 2080 922 2221 
C 922 2246 915 2278 909 2323 
C 896 2381 890 2432 890 2477 
C 890 2650 1094 2790 1350 2790 
C 1664 2790 1837 2605 1837 2259 
L 1837 1869 
C 851 1472 742 1421 467 1178 
C 326 1050 237 832 237 621 
C 237 218 518 -64 909 -64 
C 1190 -64 1453 70 1843 403 
C 1875 70 1990 -64 2253 -64 
C 2470 -64 2605 13 2829 256 
L 2829 423 
z
M 1837 783 
C 1837 584 1805 526 1670 449 
C 1517 359 1338 301 1203 301 
C 979 301 800 520 800 796 
L 800 822 
C 800 1201 1062 1433 1837 1715 
L 1837 783 
z
" transform="scale(0.015625)"/>
       <path id="NimbusRomNo9L-Regu-69" d="M 1120 2929 
L 128 2579 
L 128 2484 
L 179 2490 
C 256 2502 339 2509 397 2509 
C 550 2509 608 2406 608 2125 
L 608 640 
C 608 179 544 109 102 109 
L 102 0 
L 1619 0 
L 1619 96 
C 1197 128 1146 191 1146 650 
L 1146 2910 
L 1120 2929 
z
M 819 4352 
C 646 4352 499 4205 499 4026 
C 499 3847 640 3699 819 3699 
C 1005 3699 1152 3840 1152 4026 
C 1152 4205 1005 4352 819 4352 
z
" transform="scale(0.015625)"/>
       <path id="NimbusRomNo9L-Regu-6f" d="M 1600 2944 
C 768 2944 186 2330 186 1446 
C 186 582 781 -64 1587 -64 
C 2394 -64 3008 614 3008 1498 
C 3008 2336 2419 2944 1600 2944 
z
M 1517 2765 
C 2054 2765 2432 2150 2432 1274 
C 2432 550 2144 115 1664 115 
C 1414 115 1178 269 1043 525 
C 864 858 762 1306 762 1760 
C 762 2368 1062 2765 1517 2765 
z
" transform="scale(0.015625)"/>
       <path id="NimbusRomNo9L-ReguItal-43" d="M 4173 3017 
L 4410 4288 
L 4275 4288 
C 4224 4185 4160 4147 4032 4147 
C 3981 4147 3904 4159 3770 4188 
C 3482 4253 3226 4288 3021 4288 
C 1658 4288 422 3010 422 1597 
C 422 623 1114 -64 2093 -64 
C 2752 -64 3264 216 3840 886 
L 3731 975 
C 3155 414 2784 223 2259 223 
C 1549 223 1139 708 1139 1532 
C 1139 2291 1446 3062 1946 3580 
C 2253 3892 2656 4070 3078 4070 
C 3667 4070 3994 3726 4058 3036 
L 4173 3017 
z
" transform="scale(0.015625)"/>
       <path id="NimbusRomNo9L-ReguItal-54" d="M 4051 4160 
L 646 4160 
L 378 3179 
L 493 3153 
C 832 3835 1037 3943 2016 3943 
L 1094 575 
C 992 236 838 134 416 102 
L 416 0 
L 2272 0 
L 2272 102 
C 2163 102 2067 128 2029 128 
C 1773 128 1696 185 1696 378 
C 1696 461 1715 537 1773 754 
L 2662 3943 
L 3014 3943 
C 3475 3943 3680 3782 3680 3422 
C 3680 3339 3674 3244 3661 3134 
L 3770 3121 
L 4051 4160 
z
" transform="scale(0.015625)"/>
       <path id="CMMI10-3d" d="M 2810 4526 
C 2842 4609 2842 4634 2842 4641 
C 2842 4711 2784 4768 2714 4768 
C 2669 4768 2624 4749 2605 4711 
L 384 -1358 
C 352 -1440 352 -1466 352 -1472 
C 352 -1542 410 -1600 480 -1600 
C 563 -1600 582 -1555 621 -1447 
L 2810 4526 
z
" transform="scale(0.015625)"/>
      </defs>
      <use xlink:href="#NimbusRomNo9L-Regu-42" transform="scale(0.996264)"/>
      <use xlink:href="#NimbusRomNo9L-Regu-75" transform="translate(66.450031 0) scale(0.996264)"/>
      <use xlink:href="#NimbusRomNo9L-Regu-64" transform="translate(116.263232 0) scale(0.996264)"/>
      <use xlink:href="#NimbusRomNo9L-Regu-67" transform="translate(166.076432 0) scale(0.996264)"/>
      <use xlink:href="#NimbusRomNo9L-Regu-65" transform="translate(215.889633 0) scale(0.996264)"/>
      <use xlink:href="#NimbusRomNo9L-Regu-74" transform="translate(260.123201 0) scale(0.996264)"/>
      <use xlink:href="#NimbusRomNo9L-Regu-52" transform="translate(312.724971 0) scale(0.996264)"/>
      <use xlink:href="#NimbusRomNo9L-Regu-61" transform="translate(379.175002 0) scale(0.996264)"/>
      <use xlink:href="#NimbusRomNo9L-Regu-74" transform="translate(423.408571 0) scale(0.996264)"/>
      <use xlink:href="#NimbusRomNo9L-Regu-69" transform="translate(451.103741 0) scale(0.996264)"/>
      <use xlink:href="#NimbusRomNo9L-Regu-6f" transform="translate(478.79891 0) scale(0.996264)"/>
      <use xlink:href="#NimbusRomNo9L-ReguItal-43" transform="translate(548.537361 0) scale(0.996264)"/>
      <use xlink:href="#NimbusRomNo9L-ReguItal-54" transform="translate(612.496777 -14.943915) scale(0.737241)"/>
      <use xlink:href="#CMMI10-3d" transform="translate(663.347287 0) scale(0.996264)"/>
      <use xlink:href="#NimbusRomNo9L-ReguItal-54" transform="translate(713.160487 0) scale(0.996264)"/>
     </g>
    </g>
   </g>
   <g id="matplotlib.axis_2">
    <g id="ytick_1">
     <g id="line2d_27">
      <path d="M 31.589821 140.462704 
L 226.33156 140.462704 
" clip-path="url(#pbce3c667b1)" style="fill: none; stroke: #b0b0b0; stroke-opacity: 0.45; stroke-width: 0.5; stroke-linecap: square"/>
     </g>
     <g id="line2d_28">
      <defs>
       <path id="m7bd5c5187e" d="M 0 0 
L 3 0 
" style="stroke: #000000; stroke-width: 0.5"/>
      </defs>
      <g>
       <use xlink:href="#m7bd5c5187e" x="31.589821" y="140.462704" style="stroke: #000000; stroke-width: 0.5"/>
      </g>
     </g>
     <g id="line2d_29">
      <defs>
       <path id="m19f4eb7a4d" d="M 0 0 
L -3 0 
" style="stroke: #000000; stroke-width: 0.5"/>
      </defs>
      <g>
       <use xlink:href="#m19f4eb7a4d" x="226.33156" y="140.462704" style="stroke: #000000; stroke-width: 0.5"/>
      </g>
     </g>
     <g id="text_6">
      <!-- $\mathdefault{0.00}$ -->
      <g transform="translate(17.467727 142.489071) scale(0.06 -0.06)">
       <use xlink:href="#NimbusRomNo9L-Regu-30" transform="scale(0.996264)"/>
       <use xlink:href="#CMMI10-3a" transform="translate(49.8132 0) scale(0.996264)"/>
       <use xlink:href="#NimbusRomNo9L-Regu-30" transform="translate(77.408707 0) scale(0.996264)"/>
       <use xlink:href="#NimbusRomNo9L-Regu-30" transform="translate(127.221908 0) scale(0.996264)"/>
      </g>
     </g>
    </g>
    <g id="ytick_2">
     <g id="line2d_30">
      <path d="M 31.589821 114.961274 
L 226.33156 114.961274 
" clip-path="url(#pbce3c667b1)" style="fill: none; stroke: #b0b0b0; stroke-opacity: 0.45; stroke-width: 0.5; stroke-linecap: square"/>
     </g>
     <g id="line2d_31">
      <g>
       <use xlink:href="#m7bd5c5187e" x="31.589821" y="114.961274" style="stroke: #000000; stroke-width: 0.5"/>
      </g>
     </g>
     <g id="line2d_32">
      <g>
       <use xlink:href="#m19f4eb7a4d" x="226.33156" y="114.961274" style="stroke: #000000; stroke-width: 0.5"/>
      </g>
     </g>
     <g id="text_7">
      <!-- $\mathdefault{0.05}$ -->
      <g transform="translate(17.467727 116.987641) scale(0.06 -0.06)">
       <use xlink:href="#NimbusRomNo9L-Regu-30" transform="scale(0.996264)"/>
       <use xlink:href="#CMMI10-3a" transform="translate(49.8132 0) scale(0.996264)"/>
       <use xlink:href="#NimbusRomNo9L-Regu-30" transform="translate(77.408707 0) scale(0.996264)"/>
       <use xlink:href="#NimbusRomNo9L-Regu-35" transform="translate(127.221908 0) scale(0.996264)"/>
      </g>
     </g>
    </g>
    <g id="ytick_3">
     <g id="line2d_33">
      <path d="M 31.589821 89.459844 
L 226.33156 89.459844 
" clip-path="url(#pbce3c667b1)" style="fill: none; stroke: #b0b0b0; stroke-opacity: 0.45; stroke-width: 0.5; stroke-linecap: square"/>
     </g>
     <g id="line2d_34">
      <g>
       <use xlink:href="#m7bd5c5187e" x="31.589821" y="89.459844" style="stroke: #000000; stroke-width: 0.5"/>
      </g>
     </g>
     <g id="line2d_35">
      <g>
       <use xlink:href="#m19f4eb7a4d" x="226.33156" y="89.459844" style="stroke: #000000; stroke-width: 0.5"/>
      </g>
     </g>
     <g id="text_8">
      <!-- $\mathdefault{0.10}$ -->
      <g transform="translate(17.467727 91.486211) scale(0.06 -0.06)">
       <use xlink:href="#NimbusRomNo9L-Regu-30" transform="scale(0.996264)"/>
       <use xlink:href="#CMMI10-3a" transform="translate(49.8132 0) scale(0.996264)"/>
       <use xlink:href="#NimbusRomNo9L-Regu-31" transform="translate(77.408707 0) scale(0.996264)"/>
       <use xlink:href="#NimbusRomNo9L-Regu-30" transform="translate(127.221908 0) scale(0.996264)"/>
      </g>
     </g>
    </g>
    <g id="ytick_4">
     <g id="line2d_36">
      <path d="M 31.589821 63.958414 
L 226.33156 63.958414 
" clip-path="url(#pbce3c667b1)" style="fill: none; stroke: #b0b0b0; stroke-opacity: 0.45; stroke-width: 0.5; stroke-linecap: square"/>
     </g>
     <g id="line2d_37">
      <g>
       <use xlink:href="#m7bd5c5187e" x="31.589821" y="63.958414" style="stroke: #000000; stroke-width: 0.5"/>
      </g>
     </g>
     <g id="line2d_38">
      <g>
       <use xlink:href="#m19f4eb7a4d" x="226.33156" y="63.958414" style="stroke: #000000; stroke-width: 0.5"/>
      </g>
     </g>
     <g id="text_9">
      <!-- $\mathdefault{0.15}$ -->
      <g transform="translate(17.467727 65.984781) scale(0.06 -0.06)">
       <use xlink:href="#NimbusRomNo9L-Regu-30" transform="scale(0.996264)"/>
       <use xlink:href="#CMMI10-3a" transform="translate(49.8132 0) scale(0.996264)"/>
       <use xlink:href="#NimbusRomNo9L-Regu-31" transform="translate(77.408707 0) scale(0.996264)"/>
       <use xlink:href="#NimbusRomNo9L-Regu-35" transform="translate(127.221908 0) scale(0.996264)"/>
      </g>
     </g>
    </g>
    <g id="ytick_5">
     <g id="line2d_39">
      <path d="M 31.589821 38.456984 
L 226.33156 38.456984 
" clip-path="url(#pbce3c667b1)" style="fill: none; stroke: #b0b0b0; stroke-opacity: 0.45; stroke-width: 0.5; stroke-linecap: square"/>
     </g>
     <g id="line2d_40">
      <g>
       <use xlink:href="#m7bd5c5187e" x="31.589821" y="38.456984" style="stroke: #000000; stroke-width: 0.5"/>
      </g>
     </g>
     <g id="line2d_41">
      <g>
       <use xlink:href="#m19f4eb7a4d" x="226.33156" y="38.456984" style="stroke: #000000; stroke-width: 0.5"/>
      </g>
     </g>
     <g id="text_10">
      <!-- $\mathdefault{0.20}$ -->
      <g transform="translate(17.467727 40.483351) scale(0.06 -0.06)">
       <defs>
        <path id="NimbusRomNo9L-Regu-32" d="M 3040 875 
L 2957 907 
C 2720 544 2637 486 2349 486 
L 819 486 
L 1894 1609 
C 2464 2202 2714 2687 2714 3185 
C 2714 3823 2195 4313 1530 4313 
C 1178 4313 845 4173 608 3918 
C 403 3700 307 3496 198 3043 
L 333 3011 
C 589 3636 819 3840 1261 3840 
C 1798 3840 2163 3476 2163 2940 
C 2163 2443 1869 1850 1331 1282 
L 192 77 
L 192 0 
L 2688 0 
L 3040 875 
z
" transform="scale(0.015625)"/>
       </defs>
       <use xlink:href="#NimbusRomNo9L-Regu-30" transform="scale(0.996264)"/>
       <use xlink:href="#CMMI10-3a" transform="translate(49.8132 0) scale(0.996264)"/>
       <use xlink:href="#NimbusRomNo9L-Regu-32" transform="translate(77.408707 0) scale(0.996264)"/>
       <use xlink:href="#NimbusRomNo9L-Regu-30" transform="translate(127.221908 0) scale(0.996264)"/>
      </g>
     </g>
    </g>
    <g id="ytick_6">
     <g id="line2d_42">
      <defs>
       <path id="macfef3ec13" d="M 0 0 
L 1.5 0 
" style="stroke: #000000; stroke-width: 0.5"/>
      </defs>
      <g>
       <use xlink:href="#macfef3ec13" x="31.589821" y="135.362418" style="stroke: #000000; stroke-width: 0.5"/>
      </g>
     </g>
     <g id="line2d_43">
      <defs>
       <path id="mf2ed3930bc" d="M 0 0 
L -1.5 0 
" style="stroke: #000000; stroke-width: 0.5"/>
      </defs>
      <g>
       <use xlink:href="#mf2ed3930bc" x="226.33156" y="135.362418" style="stroke: #000000; stroke-width: 0.5"/>
      </g>
     </g>
    </g>
    <g id="ytick_7">
     <g id="line2d_44">
      <g>
       <use xlink:href="#macfef3ec13" x="31.589821" y="130.262132" style="stroke: #000000; stroke-width: 0.5"/>
      </g>
     </g>
     <g id="line2d_45">
      <g>
       <use xlink:href="#mf2ed3930bc" x="226.33156" y="130.262132" style="stroke: #000000; stroke-width: 0.5"/>
      </g>
     </g>
    </g>
    <g id="ytick_8">
     <g id="line2d_46">
      <g>
       <use xlink:href="#macfef3ec13" x="31.589821" y="125.161846" style="stroke: #000000; stroke-width: 0.5"/>
      </g>
     </g>
     <g id="line2d_47">
      <g>
       <use xlink:href="#mf2ed3930bc" x="226.33156" y="125.161846" style="stroke: #000000; stroke-width: 0.5"/>
      </g>
     </g>
    </g>
    <g id="ytick_9">
     <g id="line2d_48">
      <g>
       <use xlink:href="#macfef3ec13" x="31.589821" y="120.06156" style="stroke: #000000; stroke-width: 0.5"/>
      </g>
     </g>
     <g id="line2d_49">
      <g>
       <use xlink:href="#mf2ed3930bc" x="226.33156" y="120.06156" style="stroke: #000000; stroke-width: 0.5"/>
      </g>
     </g>
    </g>
    <g id="ytick_10">
     <g id="line2d_50">
      <g>
       <use xlink:href="#macfef3ec13" x="31.589821" y="109.860988" style="stroke: #000000; stroke-width: 0.5"/>
      </g>
     </g>
     <g id="line2d_51">
      <g>
       <use xlink:href="#mf2ed3930bc" x="226.33156" y="109.860988" style="stroke: #000000; stroke-width: 0.5"/>
      </g>
     </g>
    </g>
    <g id="ytick_11">
     <g id="line2d_52">
      <g>
       <use xlink:href="#macfef3ec13" x="31.589821" y="104.760702" style="stroke: #000000; stroke-width: 0.5"/>
      </g>
     </g>
     <g id="line2d_53">
      <g>
       <use xlink:href="#mf2ed3930bc" x="226.33156" y="104.760702" style="stroke: #000000; stroke-width: 0.5"/>
      </g>
     </g>
    </g>
    <g id="ytick_12">
     <g id="line2d_54">
      <g>
       <use xlink:href="#macfef3ec13" x="31.589821" y="99.660416" style="stroke: #000000; stroke-width: 0.5"/>
      </g>
     </g>
     <g id="line2d_55">
      <g>
       <use xlink:href="#mf2ed3930bc" x="226.33156" y="99.660416" style="stroke: #000000; stroke-width: 0.5"/>
      </g>
     </g>
    </g>
    <g id="ytick_13">
     <g id="line2d_56">
      <g>
       <use xlink:href="#macfef3ec13" x="31.589821" y="94.56013" style="stroke: #000000; stroke-width: 0.5"/>
      </g>
     </g>
     <g id="line2d_57">
      <g>
       <use xlink:href="#mf2ed3930bc" x="226.33156" y="94.56013" style="stroke: #000000; stroke-width: 0.5"/>
      </g>
     </g>
    </g>
    <g id="ytick_14">
     <g id="line2d_58">
      <g>
       <use xlink:href="#macfef3ec13" x="31.589821" y="84.359558" style="stroke: #000000; stroke-width: 0.5"/>
      </g>
     </g>
     <g id="line2d_59">
      <g>
       <use xlink:href="#mf2ed3930bc" x="226.33156" y="84.359558" style="stroke: #000000; stroke-width: 0.5"/>
      </g>
     </g>
    </g>
    <g id="ytick_15">
     <g id="line2d_60">
      <g>
       <use xlink:href="#macfef3ec13" x="31.589821" y="79.259272" style="stroke: #000000; stroke-width: 0.5"/>
      </g>
     </g>
     <g id="line2d_61">
      <g>
       <use xlink:href="#mf2ed3930bc" x="226.33156" y="79.259272" style="stroke: #000000; stroke-width: 0.5"/>
      </g>
     </g>
    </g>
    <g id="ytick_16">
     <g id="line2d_62">
      <g>
       <use xlink:href="#macfef3ec13" x="31.589821" y="74.158986" style="stroke: #000000; stroke-width: 0.5"/>
      </g>
     </g>
     <g id="line2d_63">
      <g>
       <use xlink:href="#mf2ed3930bc" x="226.33156" y="74.158986" style="stroke: #000000; stroke-width: 0.5"/>
      </g>
     </g>
    </g>
    <g id="ytick_17">
     <g id="line2d_64">
      <g>
       <use xlink:href="#macfef3ec13" x="31.589821" y="69.0587" style="stroke: #000000; stroke-width: 0.5"/>
      </g>
     </g>
     <g id="line2d_65">
      <g>
       <use xlink:href="#mf2ed3930bc" x="226.33156" y="69.0587" style="stroke: #000000; stroke-width: 0.5"/>
      </g>
     </g>
    </g>
    <g id="ytick_18">
     <g id="line2d_66">
      <g>
       <use xlink:href="#macfef3ec13" x="31.589821" y="58.858128" style="stroke: #000000; stroke-width: 0.5"/>
      </g>
     </g>
     <g id="line2d_67">
      <g>
       <use xlink:href="#mf2ed3930bc" x="226.33156" y="58.858128" style="stroke: #000000; stroke-width: 0.5"/>
      </g>
     </g>
    </g>
    <g id="ytick_19">
     <g id="line2d_68">
      <g>
       <use xlink:href="#macfef3ec13" x="31.589821" y="53.757842" style="stroke: #000000; stroke-width: 0.5"/>
      </g>
     </g>
     <g id="line2d_69">
      <g>
       <use xlink:href="#mf2ed3930bc" x="226.33156" y="53.757842" style="stroke: #000000; stroke-width: 0.5"/>
      </g>
     </g>
    </g>
    <g id="ytick_20">
     <g id="line2d_70">
      <g>
       <use xlink:href="#macfef3ec13" x="31.589821" y="48.657556" style="stroke: #000000; stroke-width: 0.5"/>
      </g>
     </g>
     <g id="line2d_71">
      <g>
       <use xlink:href="#mf2ed3930bc" x="226.33156" y="48.657556" style="stroke: #000000; stroke-width: 0.5"/>
      </g>
     </g>
    </g>
    <g id="ytick_21">
     <g id="line2d_72">
      <g>
       <use xlink:href="#macfef3ec13" x="31.589821" y="43.55727" style="stroke: #000000; stroke-width: 0.5"/>
      </g>
     </g>
     <g id="line2d_73">
      <g>
       <use xlink:href="#mf2ed3930bc" x="226.33156" y="43.55727" style="stroke: #000000; stroke-width: 0.5"/>
      </g>
     </g>
    </g>
    <g id="ytick_22">
     <g id="line2d_74">
      <g>
       <use xlink:href="#macfef3ec13" x="31.589821" y="33.356698" style="stroke: #000000; stroke-width: 0.5"/>
      </g>
     </g>
     <g id="line2d_75">
      <g>
       <use xlink:href="#mf2ed3930bc" x="226.33156" y="33.356698" style="stroke: #000000; stroke-width: 0.5"/>
      </g>
     </g>
    </g>
    <g id="ytick_23">
     <g id="line2d_76">
      <g>
       <use xlink:href="#macfef3ec13" x="31.589821" y="28.256412" style="stroke: #000000; stroke-width: 0.5"/>
      </g>
     </g>
     <g id="line2d_77">
      <g>
       <use xlink:href="#mf2ed3930bc" x="226.33156" y="28.256412" style="stroke: #000000; stroke-width: 0.5"/>
      </g>
     </g>
    </g>
    <g id="text_11">
     <!-- $\widehat R_T - \operatorname{tr}(\Sigma)$ -->
     <g transform="translate(12.977067 105.044244) rotate(-90) scale(0.1 -0.1)">
      <defs>
       <path id="CMEX10-62" d="M 1773 4384 
L 3514 3597 
L 3590 3738 
L 1779 4762 
L -32 3738 
L 38 3597 
L 1773 4384 
z
" transform="scale(0.015625)"/>
       <path id="NimbusRomNo9L-ReguItal-52" d="M 3629 109 
C 3347 109 3219 218 3098 551 
L 2502 2121 
C 2995 2229 3206 2319 3437 2522 
C 3648 2707 3763 2955 3763 3243 
C 3763 3836 3290 4160 2432 4160 
L 845 4160 
L 845 4058 
C 1114 4020 1146 4013 1210 3969 
C 1261 3937 1299 3861 1299 3791 
C 1299 3714 1267 3561 1222 3390 
L 435 575 
C 320 199 275 161 -83 103 
L -83 0 
L 1478 0 
L 1478 103 
C 1088 154 1043 186 1043 396 
C 1043 460 1062 542 1120 765 
L 1478 2095 
L 1894 2063 
L 2682 0 
L 3629 0 
L 3629 109 
z
M 1971 3790 
C 2010 3924 2093 3969 2298 3969 
C 2829 3969 3091 3727 3091 3255 
C 3091 2624 2682 2299 1882 2299 
C 1779 2299 1709 2306 1555 2331 
L 1971 3790 
z
" transform="scale(0.015625)"/>
       <path id="CMSY10-0" d="M 4218 1472 
C 4326 1472 4442 1472 4442 1600 
C 4442 1728 4326 1728 4218 1728 
L 755 1728 
C 646 1728 531 1728 531 1600 
C 531 1472 646 1472 755 1472 
L 4218 1472 
z
" transform="scale(0.015625)"/>
       <path id="NimbusRomNo9L-Regu-72" d="M 45 2496 
C 134 2515 192 2522 269 2522 
C 429 2522 486 2419 486 2138 
L 486 538 
C 486 218 442 173 32 96 
L 32 0 
L 1568 0 
L 1568 102 
C 1133 102 1024 199 1024 565 
L 1024 2013 
C 1024 2219 1299 2541 1472 2541 
C 1510 2541 1568 2509 1638 2445 
C 1741 2355 1811 2317 1894 2317 
C 2048 2317 2144 2426 2144 2605 
C 2144 2816 2010 2944 1792 2944 
C 1523 2944 1338 2797 1024 2343 
L 1024 2931 
L 992 2944 
C 653 2803 422 2721 45 2599 
L 45 2496 
z
" transform="scale(0.015625)"/>
       <path id="CMR10-28" d="M 2118 -1536 
C 2118 -1517 2118 -1504 2010 -1395 
C 1210 -584 1005 632 1005 1616 
C 1005 2735 1248 3855 2035 4658 
C 2118 4735 2118 4748 2118 4767 
C 2118 4812 2093 4832 2054 4832 
C 1990 4832 1414 4395 1037 3577 
C 710 2870 634 2156 634 1616 
C 634 1114 704 336 1056 -391 
C 1440 -1182 1990 -1600 2054 -1600 
C 2093 -1600 2118 -1581 2118 -1536 
z
" transform="scale(0.015625)"/>
       <path id="StandardSymL-53" d="M 1069 4027 
L 2150 4027 
C 2893 4027 3091 3881 3200 3250 
L 3366 3250 
L 3302 4288 
L 141 4288 
L 1536 2039 
L 32 0 
L 3424 0 
L 3770 1146 
L 3603 1146 
C 3398 636 3206 528 2464 528 
L 755 528 
L 2106 2351 
L 1069 4027 
z
" transform="scale(0.015625)"/>
       <path id="CMR10-29" d="M 1850 1616 
C 1850 2118 1779 2896 1427 3622 
C 1043 4414 493 4832 429 4832 
C 390 4832 365 4806 365 4767 
C 365 4748 365 4735 486 4620 
C 1114 3983 1478 2960 1478 1616 
C 1478 516 1242 -617 448 -1427 
C 365 -1504 365 -1517 365 -1536 
C 365 -1575 390 -1600 429 -1600 
C 493 -1600 1069 -1163 1446 -346 
C 1773 362 1850 1075 1850 1616 
z
" transform="scale(0.015625)"/>
      </defs>
      <use xlink:href="#CMEX10-62" transform="translate(12.752532 21.818252) scale(0.996264)"/>
      <use xlink:href="#NimbusRomNo9L-ReguItal-52" transform="scale(0.996264)"/>
      <use xlink:href="#NimbusRomNo9L-ReguItal-54" transform="translate(60.871631 -14.943915) scale(0.737241)"/>
      <use xlink:href="#CMSY10-0" transform="translate(125.559106 0) scale(0.996264)"/>
      <use xlink:href="#NimbusRomNo9L-Regu-74" transform="translate(216.80478 0) scale(0.996264)"/>
      <use xlink:href="#NimbusRomNo9L-Regu-72" transform="translate(244.49995 0) scale(0.996264)"/>
      <use xlink:href="#CMR10-28" transform="translate(277.675179 0) scale(0.996264)"/>
      <use xlink:href="#StandardSymL-53" transform="translate(316.329025 0) scale(0.996264)"/>
      <use xlink:href="#CMR10-29" transform="translate(375.307091 0) scale(0.996264)"/>
     </g>
    </g>
   </g>
   <g id="line2d_78">
    <path d="M 35.229853 132.849786 
L 226.33156 36.963509 
L 226.33156 36.963509 
" clip-path="url(#pbce3c667b1)" style="fill: none; stroke: #404040; stroke-width: 0.9; stroke-linecap: square"/>
   </g>
   <g id="patch_3">
    <path d="M 31.589821 140.462704 
L 31.589821 27.772541 
" style="fill: none; stroke: #000000; stroke-width: 0.5; stroke-linejoin: miter; stroke-linecap: square"/>
   </g>
   <g id="patch_4">
    <path d="M 226.33156 140.462704 
L 226.33156 27.772541 
" style="fill: none; stroke: #000000; stroke-width: 0.5; stroke-linejoin: miter; stroke-linecap: square"/>
   </g>
   <g id="patch_5">
    <path d="M 31.589821 140.462704 
L 226.33156 140.462704 
" style="fill: none; stroke: #000000; stroke-width: 0.5; stroke-linejoin: miter; stroke-linecap: square"/>
   </g>
   <g id="patch_6">
    <path d="M 31.589821 27.772541 
L 226.33156 27.772541 
" style="fill: none; stroke: #000000; stroke-width: 0.5; stroke-linejoin: miter; stroke-linecap: square"/>
   </g>
   <g id="PathCollection_1">
    <defs>
     <path id="m05159a0296" d="M 0 2 
C 0.530406 2 1.03916 1.789267 1.414214 1.414214 
C 1.789267 1.03916 2 0.530406 2 0 
C 2 -0.530406 1.789267 -1.03916 1.414214 -1.414214 
C 1.03916 -1.789267 0.530406 -2 0 -2 
C -0.530406 -2 -1.03916 -1.789267 -1.414214 -1.414214 
C -1.789267 -1.03916 -2 -0.530406 -2 0 
C -2 0.530406 -1.789267 1.03916 -1.414214 1.414214 
C -1.03916 1.789267 -0.530406 2 0 2 
z
" style="stroke: #2f4f4f; stroke-opacity: 0.85; stroke-width: 0.5"/>
    </defs>
    <g clip-path="url(#pbce3c667b1)">
     <use xlink:href="#m05159a0296" x="35.229853" y="129.54036" style="fill: #2f4f4f; fill-opacity: 0.85; stroke: #2f4f4f; stroke-opacity: 0.85; stroke-width: 0.5"/>
    </g>
   </g>
   <g id="PathCollection_2">
    <defs>
     <path id="m9653b2458b" d="M -2 2 
L 2 2 
L 2 -2 
L -2 -2 
z
" style="stroke: #b35b45; stroke-opacity: 0.85; stroke-width: 0.5"/>
    </defs>
    <g clip-path="url(#pbce3c667b1)">
     <use xlink:href="#m9653b2458b" x="39.362392" y="129.979999" style="fill: #b35b45; fill-opacity: 0.85; stroke: #b35b45; stroke-opacity: 0.85; stroke-width: 0.5"/>
     <use xlink:href="#m9653b2458b" x="43.49493" y="129.506031" style="fill: #b35b45; fill-opacity: 0.85; stroke: #b35b45; stroke-opacity: 0.85; stroke-width: 0.5"/>
     <use xlink:href="#m9653b2458b" x="51.760006" y="127.552894" style="fill: #b35b45; fill-opacity: 0.85; stroke: #b35b45; stroke-opacity: 0.85; stroke-width: 0.5"/>
     <use xlink:href="#m9653b2458b" x="68.290159" y="119.625825" style="fill: #b35b45; fill-opacity: 0.85; stroke: #b35b45; stroke-opacity: 0.85; stroke-width: 0.5"/>
     <use xlink:href="#m9653b2458b" x="101.350464" y="87.688503" style="fill: #b35b45; fill-opacity: 0.85; stroke: #b35b45; stroke-opacity: 0.85; stroke-width: 0.5"/>
    </g>
   </g>
   <g id="PathCollection_3">
    <defs>
     <path id="m06237cc486" d="M -0 2.828427 
L 1.697056 0 
L 0 -2.828427 
L -1.697056 -0 
z
" style="stroke: #6b8c42; stroke-opacity: 0.85; stroke-width: 0.5"/>
    </defs>
    <g clip-path="url(#pbce3c667b1)">
     <use xlink:href="#m06237cc486" x="46.506364" y="124.645312" style="fill: #6b8c42; fill-opacity: 0.85; stroke: #6b8c42; stroke-opacity: 0.85; stroke-width: 0.5"/>
     <use xlink:href="#m06237cc486" x="57.749042" y="118.085185" style="fill: #6b8c42; fill-opacity: 0.85; stroke: #6b8c42; stroke-opacity: 0.85; stroke-width: 0.5"/>
     <use xlink:href="#m06237cc486" x="81.049893" y="106.234252" style="fill: #6b8c42; fill-opacity: 0.85; stroke: #6b8c42; stroke-opacity: 0.85; stroke-width: 0.5"/>
     <use xlink:href="#m06237cc486" x="126.287334" y="83.018835" style="fill: #6b8c42; fill-opacity: 0.85; stroke: #6b8c42; stroke-opacity: 0.85; stroke-width: 0.5"/>
    </g>
   </g>
   <g id="PathCollection_4">
    <defs>
     <path id="m8a1c88f9d6" d="M 0 -2 
L -2 2 
L 2 2 
z
" style="stroke: #6c5b9c; stroke-opacity: 0.85; stroke-width: 0.5"/>
    </defs>
    <g clip-path="url(#pbce3c667b1)">
     <use xlink:href="#m8a1c88f9d6" x="50.562081" y="124.40469" style="fill: #6c5b9c; fill-opacity: 0.85; stroke: #6c5b9c; stroke-opacity: 0.85; stroke-width: 0.5"/>
     <use xlink:href="#m8a1c88f9d6" x="62.139884" y="118.519048" style="fill: #6c5b9c; fill-opacity: 0.85; stroke: #6c5b9c; stroke-opacity: 0.85; stroke-width: 0.5"/>
     <use xlink:href="#m8a1c88f9d6" x="85.750717" y="105.546179" style="fill: #6c5b9c; fill-opacity: 0.85; stroke: #6c5b9c; stroke-opacity: 0.85; stroke-width: 0.5"/>
     <use xlink:href="#m8a1c88f9d6" x="132.300842" y="80.015826" style="fill: #6c5b9c; fill-opacity: 0.85; stroke: #6c5b9c; stroke-opacity: 0.85; stroke-width: 0.5"/>
     <use xlink:href="#m8a1c88f9d6" x="54.873364" y="124.024323" style="fill: #6c5b9c; fill-opacity: 0.85; stroke: #6c5b9c; stroke-opacity: 0.85; stroke-width: 0.5"/>
     <use xlink:href="#m8a1c88f9d6" x="66.437419" y="118.233652" style="fill: #6c5b9c; fill-opacity: 0.85; stroke: #6c5b9c; stroke-opacity: 0.85; stroke-width: 0.5"/>
     <use xlink:href="#m8a1c88f9d6" x="90.098496" y="105.224295" style="fill: #6c5b9c; fill-opacity: 0.85; stroke: #6c5b9c; stroke-opacity: 0.85; stroke-width: 0.5"/>
     <use xlink:href="#m8a1c88f9d6" x="136.866929" y="79.542156" style="fill: #6c5b9c; fill-opacity: 0.85; stroke: #6c5b9c; stroke-opacity: 0.85; stroke-width: 0.5"/>
     <use xlink:href="#m8a1c88f9d6" x="64.142805" y="122.246367" style="fill: #6c5b9c; fill-opacity: 0.85; stroke: #6c5b9c; stroke-opacity: 0.85; stroke-width: 0.5"/>
     <use xlink:href="#m8a1c88f9d6" x="75.622592" y="116.658592" style="fill: #6c5b9c; fill-opacity: 0.85; stroke: #6c5b9c; stroke-opacity: 0.85; stroke-width: 0.5"/>
     <use xlink:href="#m8a1c88f9d6" x="99.400381" y="103.593743" style="fill: #6c5b9c; fill-opacity: 0.85; stroke: #6c5b9c; stroke-opacity: 0.85; stroke-width: 0.5"/>
     <use xlink:href="#m8a1c88f9d6" x="146.553901" y="77.725115" style="fill: #6c5b9c; fill-opacity: 0.85; stroke: #6c5b9c; stroke-opacity: 0.85; stroke-width: 0.5"/>
     <use xlink:href="#m8a1c88f9d6" x="84.090195" y="114.621572" style="fill: #6c5b9c; fill-opacity: 0.85; stroke: #6c5b9c; stroke-opacity: 0.85; stroke-width: 0.5"/>
     <use xlink:href="#m8a1c88f9d6" x="95.928224" y="109.491403" style="fill: #6c5b9c; fill-opacity: 0.85; stroke: #6c5b9c; stroke-opacity: 0.85; stroke-width: 0.5"/>
     <use xlink:href="#m8a1c88f9d6" x="120.134246" y="96.385505" style="fill: #6c5b9c; fill-opacity: 0.85; stroke: #6c5b9c; stroke-opacity: 0.85; stroke-width: 0.5"/>
     <use xlink:href="#m8a1c88f9d6" x="167.941405" y="70.612233" style="fill: #6c5b9c; fill-opacity: 0.85; stroke: #6c5b9c; stroke-opacity: 0.85; stroke-width: 0.5"/>
     <use xlink:href="#m8a1c88f9d6" x="125.837409" y="83.096451" style="fill: #6c5b9c; fill-opacity: 0.85; stroke: #6c5b9c; stroke-opacity: 0.85; stroke-width: 0.5"/>
     <use xlink:href="#m8a1c88f9d6" x="140.372912" y="79.088743" style="fill: #6c5b9c; fill-opacity: 0.85; stroke: #6c5b9c; stroke-opacity: 0.85; stroke-width: 0.5"/>
     <use xlink:href="#m8a1c88f9d6" x="167.159136" y="66.180493" style="fill: #6c5b9c; fill-opacity: 0.85; stroke: #6c5b9c; stroke-opacity: 0.85; stroke-width: 0.5"/>
     <use xlink:href="#m8a1c88f9d6" x="217.231479" y="42.471258" style="fill: #6c5b9c; fill-opacity: 0.85; stroke: #6c5b9c; stroke-opacity: 0.85; stroke-width: 0.5"/>
    </g>
   </g>
   <g id="text_12">
    <!-- $\alpha^\star = 12.61$ -->
    <g style="fill: #404040" transform="translate(35.484656 38.810705) scale(0.08 -0.08)">
     <defs>
      <path id="StandardSymL-61" d="M 3174 3198 
L 2784 2105 
C 2618 2874 2227 3281 1645 3281 
C 1350 3281 1037 3160 800 2957 
C 442 2658 262 2200 262 1571 
C 262 560 768 -64 1600 -64 
C 2163 -64 2579 223 2842 789 
C 2874 668 2918 553 2989 394 
C 3155 38 3264 -64 3469 -64 
C 3680 -64 3827 70 3910 337 
C 3955 483 3974 623 3981 980 
L 3814 980 
C 3802 655 3680 420 3520 420 
C 3309 420 3098 757 3021 1196 
L 3744 3198 
L 3174 3198 
z
M 2598 1551 
L 2451 1138 
C 2227 490 1971 178 1651 178 
C 1453 178 1254 305 1152 490 
C 1011 751 934 1151 934 1609 
C 934 2067 1024 2454 1190 2734 
C 1306 2919 1453 3008 1651 3008 
C 2106 3008 2400 2645 2528 1921 
L 2598 1551 
z
" transform="scale(0.015625)"/>
      <path id="CMMI10-3f" d="M 1530 1005 
C 1536 1018 1581 1062 1600 1062 
C 1626 1062 1869 781 1914 736 
C 2099 531 2285 326 2477 134 
C 2502 102 2522 102 2528 102 
C 2579 102 2598 147 2598 173 
C 2598 205 2400 550 2214 877 
L 1965 1338 
L 3078 1850 
C 3168 1894 3174 1920 3174 1946 
C 3174 1978 3149 2010 3104 2010 
C 3098 2010 2784 1952 1824 1760 
L 1677 2963 
C 1664 3078 1658 3104 1600 3104 
C 1549 3104 1530 3072 1517 2963 
L 1376 1760 
L 192 1997 
C 160 2003 115 2010 96 2010 
C 51 2010 26 1978 26 1946 
C 26 1894 58 1882 128 1850 
L 1242 1338 
L 646 275 
C 608 198 602 192 602 173 
C 602 147 621 102 672 102 
C 685 102 704 102 768 173 
L 1530 1005 
z
" transform="scale(0.015625)"/>
      <path id="CMR10-3d" d="M 4397 2048 
C 4493 2048 4614 2048 4614 2177 
C 4614 2305 4493 2305 4403 2305 
L 570 2305 
C 480 2305 358 2305 358 2177 
C 358 2048 480 2048 576 2048 
L 4397 2048 
z
M 4403 832 
C 4493 832 4614 832 4614 961 
C 4614 1089 4493 1089 4397 1089 
L 576 1089 
C 480 1089 358 1089 358 961 
C 358 832 480 832 570 832 
L 4403 832 
z
" transform="scale(0.015625)"/>
      <path id="NimbusRomNo9L-Regu-36" d="M 2854 4391 
C 2125 4327 1754 4205 1286 3879 
C 595 3386 218 2656 218 1802 
C 218 1248 390 688 666 370 
C 909 89 1254 -64 1651 -64 
C 2445 -64 2995 541 2995 1421 
C 2995 2236 2528 2752 1792 2752 
C 1510 2752 1376 2707 973 2464 
C 1146 3431 1862 4122 2867 4288 
L 2854 4391 
z
M 1549 2458 
C 2099 2458 2419 2000 2419 1204 
C 2419 504 2170 116 1722 116 
C 1158 116 813 714 813 1700 
C 813 2025 864 2203 992 2299 
C 1126 2400 1325 2458 1549 2458 
z
" transform="scale(0.015625)"/>
     </defs>
     <use xlink:href="#StandardSymL-61" transform="scale(0.996264)"/>
     <use xlink:href="#CMMI10-3f" transform="translate(71.132271 36.163231) scale(0.737241)"/>
     <use xlink:href="#CMR10-3d" transform="translate(130.631591 0) scale(0.996264)"/>
     <use xlink:href="#NimbusRomNo9L-Regu-31" transform="translate(230.179445 0) scale(0.996264)"/>
     <use xlink:href="#NimbusRomNo9L-Regu-32" transform="translate(279.992645 0) scale(0.996264)"/>
     <use xlink:href="#CMMI10-3a" transform="translate(329.805846 0) scale(0.996264)"/>
     <use xlink:href="#NimbusRomNo9L-Regu-36" transform="translate(357.401353 0) scale(0.996264)"/>
     <use xlink:href="#NimbusRomNo9L-Regu-31" transform="translate(407.214553 0) scale(0.996264)"/>
    </g>
   </g>
   <g id="text_13">
    <!-- $R^2 = 0.97$ -->
    <g style="fill: #404040" transform="translate(171.803873 78.252262) scale(0.08 -0.08)">
     <defs>
      <path id="NimbusRomNo9L-Regu-39" d="M 378 -123 
C 1094 -40 1446 82 1882 396 
C 2547 882 2938 1676 2938 2539 
C 2938 3593 2349 4339 1523 4339 
C 762 4339 192 3694 192 2832 
C 192 2053 653 1536 1344 1536 
C 1696 1536 1965 1638 2304 1900 
C 2042 856 1331 172 358 5 
L 378 -123 
z
M 2317 2290 
C 2317 2162 2291 2104 2221 2047 
C 2042 1894 1805 1811 1574 1811 
C 1088 1811 781 2290 781 3050 
C 781 3413 883 3796 1018 3963 
C 1126 4090 1286 4160 1472 4160 
C 2029 4160 2317 3611 2317 2539 
L 2317 2290 
z
" transform="scale(0.015625)"/>
      <path id="NimbusRomNo9L-Regu-37" d="M 2874 4250 
L 506 4250 
L 128 3310 
L 237 3258 
C 512 3693 627 3776 979 3776 
L 2368 3776 
L 1101 -32 
L 1517 -32 
L 2874 4148 
L 2874 4250 
z
" transform="scale(0.015625)"/>
     </defs>
     <use xlink:href="#NimbusRomNo9L-ReguItal-52" transform="scale(0.996264)"/>
     <use xlink:href="#NimbusRomNo9L-Regu-32" transform="translate(60.871631 36.163231) scale(0.737241)"/>
     <use xlink:href="#CMR10-3d" transform="translate(120.370951 0) scale(0.996264)"/>
     <use xlink:href="#NimbusRomNo9L-Regu-30" transform="translate(219.918804 0) scale(0.996264)"/>
     <use xlink:href="#CMMI10-3a" transform="translate(269.732005 0) scale(0.996264)"/>
     <use xlink:href="#NimbusRomNo9L-Regu-39" transform="translate(297.327511 0) scale(0.996264)"/>
     <use xlink:href="#NimbusRomNo9L-Regu-37" transform="translate(347.140712 0) scale(0.996264)"/>
    </g>
   </g>
   <g id="legend_1">
    <g id="line2d_79">
     <defs>
      <path id="m6857a56683" d="M 0 2.25 
C 0.596707 2.25 1.169055 2.012926 1.59099 1.59099 
C 2.012926 1.169055 2.25 0.596707 2.25 0 
C 2.25 -0.596707 2.012926 -1.169055 1.59099 -1.59099 
C 1.169055 -2.012926 0.596707 -2.25 0 -2.25 
C -0.596707 -2.25 -1.169055 -2.012926 -1.59099 -1.59099 
C -2.012926 -1.169055 -2.25 -0.596707 -2.25 0 
C -2.25 0.596707 -2.012926 1.169055 -1.59099 1.59099 
C -1.169055 2.012926 -0.596707 2.25 0 2.25 
z
" style="stroke: #000000; stroke-opacity: 0"/>
     </defs>
     <g>
      <use xlink:href="#m6857a56683" x="60.376582" y="9.6" style="fill: #2f4f4f; stroke: #000000; stroke-opacity: 0"/>
     </g>
    </g>
    <g id="text_14">
     <!-- iid -->
     <g transform="translate(74.776582 12.4) scale(0.08 -0.08)">
      <use xlink:href="#NimbusRomNo9L-Regu-69" transform="scale(0.996264)"/>
      <use xlink:href="#NimbusRomNo9L-Regu-69" transform="translate(27.69517 0) scale(0.996264)"/>
      <use xlink:href="#NimbusRomNo9L-Regu-64" transform="translate(55.390339 0) scale(0.996264)"/>
     </g>
    </g>
    <g id="line2d_80">
     <defs>
      <path id="mf48c2471be" d="M -2.25 2.25 
L 2.25 2.25 
L 2.25 -2.25 
L -2.25 -2.25 
z
" style="stroke: #000000; stroke-opacity: 0; stroke-linejoin: miter"/>
     </defs>
     <g>
      <use xlink:href="#mf48c2471be" x="60.376582" y="20.925463" style="fill: #b35b45; stroke: #000000; stroke-opacity: 0; stroke-linejoin: miter"/>
     </g>
    </g>
    <g id="text_15">
     <!-- exogenous only -->
     <g transform="translate(74.776582 23.725463) scale(0.08 -0.08)">
      <defs>
       <path id="NimbusRomNo9L-Regu-78" d="M 1779 0 
L 3066 0 
L 3066 96 
C 2867 96 2739 198 2541 480 
L 1722 1735 
L 2253 2502 
C 2374 2675 2566 2778 2771 2778 
L 2771 2880 
L 1760 2880 
L 1760 2778 
C 1952 2778 2016 2740 2016 2649 
C 2016 2571 1939 2430 1779 2229 
C 1747 2191 1670 2075 1587 1946 
L 1498 2074 
C 1318 2342 1203 2560 1203 2643 
C 1203 2733 1286 2778 1478 2778 
L 1478 2880 
L 154 2880 
L 154 2778 
L 211 2778 
C 403 2778 506 2695 704 2396 
L 1306 1479 
L 576 422 
C 384 160 320 115 109 96 
L 109 0 
L 1037 0 
L 1037 96 
C 858 96 781 128 781 211 
C 781 250 826 346 909 474 
L 1414 1261 
L 1997 365 
C 2022 326 2035 288 2035 250 
C 2035 123 1990 96 1779 96 
L 1779 0 
z
" transform="scale(0.015625)"/>
       <path id="NimbusRomNo9L-Regu-6e" d="M 102 2579 
C 141 2598 205 2605 275 2605 
C 454 2605 512 2509 512 2195 
L 512 608 
C 512 243 442 154 115 128 
L 115 32 
L 1472 32 
L 1472 128 
C 1146 154 1050 230 1050 461 
L 1050 2259 
C 1357 2547 1498 2624 1709 2624 
C 2022 2624 2176 2426 2176 2003 
L 2176 666 
C 2176 262 2093 154 1773 128 
L 1773 32 
L 3104 32 
L 3104 128 
C 2790 160 2714 237 2714 550 
L 2714 2016 
C 2714 2618 2432 2976 1958 2976 
C 1664 2976 1466 2867 1030 2458 
L 1030 2963 
L 986 2976 
C 672 2861 454 2790 102 2688 
L 102 2579 
z
" transform="scale(0.015625)"/>
       <path id="NimbusRomNo9L-Regu-73" d="M 2016 2010 
L 1990 2880 
L 1920 2880 
L 1907 2867 
C 1850 2822 1843 2816 1818 2816 
C 1779 2816 1715 2829 1645 2861 
C 1504 2915 1363 2944 1197 2944 
C 691 2944 326 2616 326 2154 
C 326 1796 531 1539 1075 1231 
L 1446 1020 
C 1670 892 1779 737 1779 539 
C 1779 256 1574 77 1248 77 
C 1030 77 832 159 710 298 
C 576 455 518 600 435 960 
L 333 960 
L 333 -39 
L 416 -39 
C 461 33 486 48 563 48 
C 621 48 710 35 858 -2 
C 1037 -39 1210 -64 1325 -64 
C 1818 -64 2227 308 2227 757 
C 2227 1077 2074 1289 1690 1520 
L 998 1930 
C 819 2033 723 2194 723 2367 
C 723 2624 922 2803 1216 2803 
C 1581 2803 1773 2583 1920 2010 
L 2016 2010 
z
" transform="scale(0.015625)"/>
       <path id="NimbusRomNo9L-Regu-6c" d="M 122 4000 
L 160 4000 
C 230 4000 307 4000 358 4000 
C 563 4000 627 3910 627 3610 
L 627 557 
C 627 211 538 128 134 96 
L 134 0 
L 1645 0 
L 1645 109 
C 1242 109 1165 173 1165 528 
L 1165 4371 
L 1139 4384 
C 806 4275 563 4211 122 4103 
L 122 4000 
z
" transform="scale(0.015625)"/>
       <path id="NimbusRomNo9L-Regu-79" d="M 3040 2880 
L 2176 2880 
L 2176 2784 
C 2381 2784 2483 2726 2483 2623 
C 2483 2597 2477 2559 2458 2514 
L 1837 742 
L 1101 2377 
C 1062 2468 1037 2552 1037 2622 
C 1037 2739 1133 2784 1408 2784 
L 1408 2880 
L 90 2880 
L 90 2790 
C 256 2765 365 2694 416 2585 
L 1146 1005 
L 1165 953 
L 1261 761 
C 1440 440 1542 209 1542 112 
C 1542 16 1395 -389 1286 -582 
C 1197 -749 1056 -871 966 -871 
C 928 -871 870 -858 806 -826 
C 685 -781 576 -755 467 -755 
C 320 -755 192 -883 192 -1037 
C 192 -1248 397 -1408 666 -1408 
C 1094 -1408 1402 -1049 1747 -124 
L 2733 2495 
C 2816 2701 2886 2765 3040 2784 
L 3040 2880 
z
" transform="scale(0.015625)"/>
      </defs>
      <use xlink:href="#NimbusRomNo9L-Regu-65" transform="scale(0.996264)"/>
      <use xlink:href="#NimbusRomNo9L-Regu-78" transform="translate(42.740176 0) scale(0.996264)"/>
      <use xlink:href="#NimbusRomNo9L-Regu-6f" transform="translate(92.553376 0) scale(0.996264)"/>
      <use xlink:href="#NimbusRomNo9L-Regu-67" transform="translate(142.366577 0) scale(0.996264)"/>
      <use xlink:href="#NimbusRomNo9L-Regu-65" transform="translate(192.179777 0) scale(0.996264)"/>
      <use xlink:href="#NimbusRomNo9L-Regu-6e" transform="translate(236.413346 0) scale(0.996264)"/>
      <use xlink:href="#NimbusRomNo9L-Regu-6f" transform="translate(286.226547 0) scale(0.996264)"/>
      <use xlink:href="#NimbusRomNo9L-Regu-75" transform="translate(336.039747 0) scale(0.996264)"/>
      <use xlink:href="#NimbusRomNo9L-Regu-73" transform="translate(385.852948 0) scale(0.996264)"/>
      <use xlink:href="#NimbusRomNo9L-Regu-6f" transform="translate(449.513254 0) scale(0.996264)"/>
      <use xlink:href="#NimbusRomNo9L-Regu-6e" transform="translate(499.326455 0) scale(0.996264)"/>
      <use xlink:href="#NimbusRomNo9L-Regu-6c" transform="translate(549.139655 0) scale(0.996264)"/>
      <use xlink:href="#NimbusRomNo9L-Regu-79" transform="translate(576.834825 0) scale(0.996264)"/>
     </g>
    </g>
    <g id="line2d_81">
     <defs>
      <path id="m02519fa54d" d="M -0 3.181981 
L 1.909188 0 
L 0 -3.181981 
L -1.909188 -0 
z
" style="stroke: #000000; stroke-opacity: 0; stroke-linejoin: miter"/>
     </defs>
     <g>
      <use xlink:href="#m02519fa54d" x="136.908427" y="9.6" style="fill: #6b8c42; stroke: #000000; stroke-opacity: 0; stroke-linejoin: miter"/>
     </g>
    </g>
    <g id="text_16">
     <!-- endogenous only -->
     <g transform="translate(151.308427 12.4) scale(0.08 -0.08)">
      <use xlink:href="#NimbusRomNo9L-Regu-65" transform="scale(0.996264)"/>
      <use xlink:href="#NimbusRomNo9L-Regu-6e" transform="translate(44.233569 0) scale(0.996264)"/>
      <use xlink:href="#NimbusRomNo9L-Regu-64" transform="translate(94.046769 0) scale(0.996264)"/>
      <use xlink:href="#NimbusRomNo9L-Regu-6f" transform="translate(143.85997 0) scale(0.996264)"/>
      <use xlink:href="#NimbusRomNo9L-Regu-67" transform="translate(193.67317 0) scale(0.996264)"/>
      <use xlink:href="#NimbusRomNo9L-Regu-65" transform="translate(243.486371 0) scale(0.996264)"/>
      <use xlink:href="#NimbusRomNo9L-Regu-6e" transform="translate(287.719939 0) scale(0.996264)"/>
      <use xlink:href="#NimbusRomNo9L-Regu-6f" transform="translate(337.53314 0) scale(0.996264)"/>
      <use xlink:href="#NimbusRomNo9L-Regu-75" transform="translate(387.34634 0) scale(0.996264)"/>
      <use xlink:href="#NimbusRomNo9L-Regu-73" transform="translate(437.159541 0) scale(0.996264)"/>
      <use xlink:href="#NimbusRomNo9L-Regu-6f" transform="translate(500.819847 0) scale(0.996264)"/>
      <use xlink:href="#NimbusRomNo9L-Regu-6e" transform="translate(550.633048 0) scale(0.996264)"/>
      <use xlink:href="#NimbusRomNo9L-Regu-6c" transform="translate(600.446248 0) scale(0.996264)"/>
      <use xlink:href="#NimbusRomNo9L-Regu-79" transform="translate(628.141418 0) scale(0.996264)"/>
     </g>
    </g>
    <g id="line2d_82">
     <defs>
      <path id="m44e8ad79fc" d="M 0 -2.25 
L -2.25 2.25 
L 2.25 2.25 
z
" style="stroke: #000000; stroke-opacity: 0; stroke-linejoin: miter"/>
     </defs>
     <g>
      <use xlink:href="#m44e8ad79fc" x="136.908427" y="20.925463" style="fill: #6c5b9c; stroke: #000000; stroke-opacity: 0; stroke-linejoin: miter"/>
     </g>
    </g>
    <g id="text_17">
     <!-- mixed -->
     <g transform="translate(151.308427 23.725463) scale(0.08 -0.08)">
      <defs>
       <path id="NimbusRomNo9L-Regu-6d" d="M 122 2547 
C 205 2566 256 2573 326 2573 
C 493 2573 550 2470 550 2162 
L 550 539 
C 550 192 461 96 102 96 
L 102 0 
L 1523 0 
L 1523 96 
C 1184 96 1088 166 1088 418 
L 1088 2234 
C 1088 2246 1139 2310 1184 2355 
C 1344 2502 1619 2611 1843 2611 
C 2125 2611 2266 2385 2266 1932 
L 2266 528 
C 2266 167 2195 96 1830 96 
L 1830 0 
L 3264 0 
L 3264 96 
C 2899 96 2803 205 2803 603 
L 2803 2221 
C 2995 2496 3206 2611 3501 2611 
C 3866 2611 3981 2438 3981 1907 
L 3981 557 
C 3981 192 3930 141 3558 96 
L 3558 0 
L 4960 0 
L 4960 96 
L 4794 115 
C 4602 115 4518 230 4518 480 
L 4518 1802 
C 4518 2559 4269 2944 3776 2944 
C 3405 2944 3078 2778 2733 2407 
C 2618 2771 2400 2944 2054 2944 
C 1773 2944 1594 2854 1062 2451 
L 1062 2931 
L 1018 2944 
C 691 2822 474 2752 122 2656 
L 122 2547 
z
" transform="scale(0.015625)"/>
      </defs>
      <use xlink:href="#NimbusRomNo9L-Regu-6d" transform="scale(0.996264)"/>
      <use xlink:href="#NimbusRomNo9L-Regu-69" transform="translate(77.50837 0) scale(0.996264)"/>
      <use xlink:href="#NimbusRomNo9L-Regu-78" transform="translate(105.20354 0) scale(0.996264)"/>
      <use xlink:href="#NimbusRomNo9L-Regu-65" transform="translate(153.523348 0) scale(0.996264)"/>
      <use xlink:href="#NimbusRomNo9L-Regu-64" transform="translate(197.756916 0) scale(0.996264)"/>
     </g>
    </g>
   </g>
  </g>
  <g id="axes_2">
   <g id="patch_7">
    <path d="M 165.335329 132.101294 
L 219.863016 132.101294 
L 219.863016 100.548049 
L 165.335329 100.548049 
z
" style="fill: #ffffff"/>
   </g>
   <g id="PathCollection_5">
    <defs>
     <path id="meba5097921" d="M 0 1.581139 
C 0.419323 1.581139 0.821528 1.41454 1.118034 1.118034 
C 1.41454 0.821528 1.581139 0.419323 1.581139 0 
C 1.581139 -0.419323 1.41454 -0.821528 1.118034 -1.118034 
C 0.821528 -1.41454 0.419323 -1.581139 0 -1.581139 
C -0.419323 -1.581139 -0.821528 -1.41454 -1.118034 -1.118034 
C -1.41454 -0.821528 -1.581139 -0.419323 -1.581139 0 
C -1.581139 0.419323 -1.41454 0.821528 -1.118034 1.118034 
C -0.821528 1.41454 -0.419323 1.581139 0 1.581139 
z
"/>
    </defs>
    <g clip-path="url(#p7435e7186e)">
     <use xlink:href="#meba5097921" x="167.813861" y="115.023436" style="fill: #4f65a3; fill-opacity: 0.8"/>
     <use xlink:href="#meba5097921" x="170.885172" y="116.170389" style="fill: #4f65a3; fill-opacity: 0.8"/>
     <use xlink:href="#meba5097921" x="173.947269" y="114.78885" style="fill: #4f65a3; fill-opacity: 0.8"/>
     <use xlink:href="#meba5097921" x="180.293573" y="114.548923" style="fill: #4f65a3; fill-opacity: 0.8"/>
     <use xlink:href="#meba5097921" x="192.614607" y="113.771317" style="fill: #4f65a3; fill-opacity: 0.8"/>
     <use xlink:href="#meba5097921" x="168.939414" y="118.801261" style="fill: #4f65a3; fill-opacity: 0.8"/>
     <use xlink:href="#meba5097921" x="171.989802" y="118.867693" style="fill: #4f65a3; fill-opacity: 0.8"/>
     <use xlink:href="#meba5097921" x="175.143174" y="118.752818" style="fill: #4f65a3; fill-opacity: 0.8"/>
     <use xlink:href="#meba5097921" x="181.573907" y="117.060181" style="fill: #4f65a3; fill-opacity: 0.8"/>
     <use xlink:href="#meba5097921" x="194.252468" y="113.792811" style="fill: #4f65a3; fill-opacity: 0.8"/>
     <use xlink:href="#meba5097921" x="170.064967" y="121.205736" style="fill: #4f65a3; fill-opacity: 0.8"/>
     <use xlink:href="#meba5097921" x="173.164039" y="121.547689" style="fill: #4f65a3; fill-opacity: 0.8"/>
     <use xlink:href="#meba5097921" x="176.313667" y="121.565208" style="fill: #4f65a3; fill-opacity: 0.8"/>
     <use xlink:href="#meba5097921" x="182.758084" y="119.855617" style="fill: #4f65a3; fill-opacity: 0.8"/>
     <use xlink:href="#meba5097921" x="195.496104" y="116.524739" style="fill: #4f65a3; fill-opacity: 0.8"/>
     <use xlink:href="#meba5097921" x="172.316073" y="124.503655" style="fill: #4f65a3; fill-opacity: 0.8"/>
     <use xlink:href="#meba5097921" x="175.688697" y="125.866482" style="fill: #4f65a3; fill-opacity: 0.8"/>
     <use xlink:href="#meba5097921" x="178.815374" y="126.125438" style="fill: #4f65a3; fill-opacity: 0.8"/>
     <use xlink:href="#meba5097921" x="185.291579" y="124.42046" style="fill: #4f65a3; fill-opacity: 0.8"/>
     <use xlink:href="#meba5097921" x="198.134483" y="121.099701" style="fill: #4f65a3; fill-opacity: 0.8"/>
     <use xlink:href="#meba5097921" x="176.818286" y="125.055367" style="fill: #4f65a3; fill-opacity: 0.8"/>
     <use xlink:href="#meba5097921" x="181.121641" y="129.450018" style="fill: #4f65a3; fill-opacity: 0.8"/>
     <use xlink:href="#meba5097921" x="184.34589" y="130.667056" style="fill: #4f65a3; fill-opacity: 0.8"/>
     <use xlink:href="#meba5097921" x="190.93873" y="129.223367" style="fill: #4f65a3; fill-opacity: 0.8"/>
     <use xlink:href="#meba5097921" x="203.959661" y="126.538952" style="fill: #4f65a3; fill-opacity: 0.8"/>
     <use xlink:href="#meba5097921" x="185.822711" y="101.982287" style="fill: #4f65a3; fill-opacity: 0.8"/>
     <use xlink:href="#meba5097921" x="192.492064" y="113.548636" style="fill: #4f65a3; fill-opacity: 0.8"/>
     <use xlink:href="#meba5097921" x="196.451007" y="118.487537" style="fill: #4f65a3; fill-opacity: 0.8"/>
     <use xlink:href="#meba5097921" x="203.7466" y="119.287065" style="fill: #4f65a3; fill-opacity: 0.8"/>
     <use xlink:href="#meba5097921" x="217.384485" y="121.413851" style="fill: #4f65a3; fill-opacity: 0.8"/>
    </g>
   </g>
   <g id="matplotlib.axis_3">
    <g id="xtick_14">
     <g id="line2d_83">
      <defs>
       <path id="m07e3c2027f" d="M 0 0 
L 0 -2 
" style="stroke: #000000; stroke-width: 0.5"/>
      </defs>
      <g>
       <use xlink:href="#m07e3c2027f" x="167.813861" y="132.101294" style="stroke: #000000; stroke-width: 0.5"/>
      </g>
     </g>
     <g id="line2d_84">
      <defs>
       <path id="md673224a94" d="M 0 0 
L 0 2 
" style="stroke: #000000; stroke-width: 0.5"/>
      </defs>
      <g>
       <use xlink:href="#md673224a94" x="167.813861" y="100.548049" style="stroke: #000000; stroke-width: 0.5"/>
      </g>
     </g>
     <g id="text_18">
      <!-- $\mathdefault{0.00}$ -->
      <g transform="translate(162.899368 137.051437) scale(0.05552 -0.05552)">
       <use xlink:href="#NimbusRomNo9L-Regu-30" transform="scale(0.996264)"/>
       <use xlink:href="#CMMI10-3a" transform="translate(49.8132 0) scale(0.996264)"/>
       <use xlink:href="#NimbusRomNo9L-Regu-30" transform="translate(77.408707 0) scale(0.996264)"/>
       <use xlink:href="#NimbusRomNo9L-Regu-30" transform="translate(127.221908 0) scale(0.996264)"/>
      </g>
     </g>
    </g>
    <g id="xtick_15">
     <g id="line2d_85">
      <g>
       <use xlink:href="#m07e3c2027f" x="190.324923" y="132.101294" style="stroke: #000000; stroke-width: 0.5"/>
      </g>
     </g>
     <g id="line2d_86">
      <g>
       <use xlink:href="#md673224a94" x="190.324923" y="100.548049" style="stroke: #000000; stroke-width: 0.5"/>
      </g>
     </g>
     <g id="text_19">
      <!-- $\mathdefault{0.02}$ -->
      <g transform="translate(185.41043 137.051437) scale(0.05552 -0.05552)">
       <use xlink:href="#NimbusRomNo9L-Regu-30" transform="scale(0.996264)"/>
       <use xlink:href="#CMMI10-3a" transform="translate(49.8132 0) scale(0.996264)"/>
       <use xlink:href="#NimbusRomNo9L-Regu-30" transform="translate(77.408707 0) scale(0.996264)"/>
       <use xlink:href="#NimbusRomNo9L-Regu-32" transform="translate(127.221908 0) scale(0.996264)"/>
      </g>
     </g>
    </g>
    <g id="xtick_16">
     <g id="line2d_87">
      <g>
       <use xlink:href="#m07e3c2027f" x="212.835985" y="132.101294" style="stroke: #000000; stroke-width: 0.5"/>
      </g>
     </g>
     <g id="line2d_88">
      <g>
       <use xlink:href="#md673224a94" x="212.835985" y="100.548049" style="stroke: #000000; stroke-width: 0.5"/>
      </g>
     </g>
     <g id="text_20">
      <!-- $\mathdefault{0.04}$ -->
      <g transform="translate(207.921492 137.051437) scale(0.05552 -0.05552)">
       <use xlink:href="#NimbusRomNo9L-Regu-30" transform="scale(0.996264)"/>
       <use xlink:href="#CMMI10-3a" transform="translate(49.8132 0) scale(0.996264)"/>
       <use xlink:href="#NimbusRomNo9L-Regu-30" transform="translate(77.408707 0) scale(0.996264)"/>
       <use xlink:href="#NimbusRomNo9L-Regu-34" transform="translate(127.221908 0) scale(0.996264)"/>
      </g>
     </g>
    </g>
    <g id="xtick_17">
     <g id="line2d_89">
      <g>
       <use xlink:href="#me9f8340f01" x="173.441626" y="132.101294" style="stroke: #000000; stroke-width: 0.5"/>
      </g>
     </g>
     <g id="line2d_90">
      <g>
       <use xlink:href="#m5b73e18aea" x="173.441626" y="100.548049" style="stroke: #000000; stroke-width: 0.5"/>
      </g>
     </g>
    </g>
    <g id="xtick_18">
     <g id="line2d_91">
      <g>
       <use xlink:href="#me9f8340f01" x="179.069392" y="132.101294" style="stroke: #000000; stroke-width: 0.5"/>
      </g>
     </g>
     <g id="line2d_92">
      <g>
       <use xlink:href="#m5b73e18aea" x="179.069392" y="100.548049" style="stroke: #000000; stroke-width: 0.5"/>
      </g>
     </g>
    </g>
    <g id="xtick_19">
     <g id="line2d_93">
      <g>
       <use xlink:href="#me9f8340f01" x="184.697157" y="132.101294" style="stroke: #000000; stroke-width: 0.5"/>
      </g>
     </g>
     <g id="line2d_94">
      <g>
       <use xlink:href="#m5b73e18aea" x="184.697157" y="100.548049" style="stroke: #000000; stroke-width: 0.5"/>
      </g>
     </g>
    </g>
    <g id="xtick_20">
     <g id="line2d_95">
      <g>
       <use xlink:href="#me9f8340f01" x="195.952689" y="132.101294" style="stroke: #000000; stroke-width: 0.5"/>
      </g>
     </g>
     <g id="line2d_96">
      <g>
       <use xlink:href="#m5b73e18aea" x="195.952689" y="100.548049" style="stroke: #000000; stroke-width: 0.5"/>
      </g>
     </g>
    </g>
    <g id="xtick_21">
     <g id="line2d_97">
      <g>
       <use xlink:href="#me9f8340f01" x="201.580454" y="132.101294" style="stroke: #000000; stroke-width: 0.5"/>
      </g>
     </g>
     <g id="line2d_98">
      <g>
       <use xlink:href="#m5b73e18aea" x="201.580454" y="100.548049" style="stroke: #000000; stroke-width: 0.5"/>
      </g>
     </g>
    </g>
    <g id="xtick_22">
     <g id="line2d_99">
      <g>
       <use xlink:href="#me9f8340f01" x="207.20822" y="132.101294" style="stroke: #000000; stroke-width: 0.5"/>
      </g>
     </g>
     <g id="line2d_100">
      <g>
       <use xlink:href="#m5b73e18aea" x="207.20822" y="100.548049" style="stroke: #000000; stroke-width: 0.5"/>
      </g>
     </g>
    </g>
    <g id="xtick_23">
     <g id="line2d_101">
      <g>
       <use xlink:href="#me9f8340f01" x="218.463751" y="132.101294" style="stroke: #000000; stroke-width: 0.5"/>
      </g>
     </g>
     <g id="line2d_102">
      <g>
       <use xlink:href="#m5b73e18aea" x="218.463751" y="100.548049" style="stroke: #000000; stroke-width: 0.5"/>
      </g>
     </g>
    </g>
   </g>
   <g id="matplotlib.axis_4"/>
   <g id="line2d_103">
    <path d="M 165.335329 119.998218 
L 219.863016 119.998218 
" clip-path="url(#p7435e7186e)" style="fill: none; stroke-dasharray: 2.22,0.96; stroke-dashoffset: 0; stroke: #808080; stroke-width: 0.6"/>
   </g>
   <g id="patch_8">
    <path d="M 165.335329 132.101294 
L 165.335329 100.548049 
" style="fill: none; stroke: #000000; stroke-width: 0.5; stroke-linejoin: miter; stroke-linecap: square"/>
   </g>
   <g id="patch_9">
    <path d="M 165.335329 132.101294 
L 219.863016 132.101294 
" style="fill: none; stroke: #000000; stroke-width: 0.5; stroke-linejoin: miter; stroke-linecap: square"/>
   </g>
   <g id="text_21">
    <!-- Residuals -->
    <g transform="translate(179.689652 99.048049) scale(0.06664 -0.06664)">
     <use xlink:href="#NimbusRomNo9L-Regu-52" transform="scale(0.996264)"/>
     <use xlink:href="#NimbusRomNo9L-Regu-65" transform="translate(66.450031 0) scale(0.996264)"/>
     <use xlink:href="#NimbusRomNo9L-Regu-73" transform="translate(110.6836 0) scale(0.996264)"/>
     <use xlink:href="#NimbusRomNo9L-Regu-69" transform="translate(149.437306 0) scale(0.996264)"/>
     <use xlink:href="#NimbusRomNo9L-Regu-64" transform="translate(177.132476 0) scale(0.996264)"/>
     <use xlink:href="#NimbusRomNo9L-Regu-75" transform="translate(226.945676 0) scale(0.996264)"/>
     <use xlink:href="#NimbusRomNo9L-Regu-61" transform="translate(276.758877 0) scale(0.996264)"/>
     <use xlink:href="#NimbusRomNo9L-Regu-6c" transform="translate(320.992445 0) scale(0.996264)"/>
     <use xlink:href="#NimbusRomNo9L-Regu-73" transform="translate(348.687615 0) scale(0.996264)"/>
    </g>
   </g>
  </g>
 </g>
 <defs>
  <clipPath id="pbce3c667b1">
   <rect x="31.589821" y="27.772541" width="194.741739" height="112.690163"/>
  </clipPath>
  <clipPath id="p7435e7186e">
   <rect x="165.335329" y="100.548049" width="54.527687" height="31.553246"/>
  </clipPath>
 </defs>
</svg>
